SplineFontDB: 3.2
FontName: Fallout-Classic-Dialog-Bold
FullName: Fallout Classic Dialog
FamilyName: Fallout-Classic
Weight: Bold
Copyright: Copyright (c) 2022, Vitalis Sandor Ung (Slowhand at fodev.net, github.com/Sasabmeg)\n\nThis font is free to use by anyone for any reason. There is no guarantee nor any copyright/copyleft requirements to fufill by using, changing this font in any way towards the creator. You may ditch this copyright message if you create your own version based off this font.\n\nThe font was created from scratch with the aim to help the fan based Fallout Online (Classic) development at fodev.net. There was 10px png version that resembled the original Fallout 1/2 default font, but with higher resolutions this was barely readable, and not suited for releases where there was significant focus on dialogs. Other font were available like the JH_fallout.ttf by Jorio Hatagaya which wasn't the best resemblence and the Fallouty.ttf by "". I didn't want base this font off with an old copyright and recreated the font from scratch, with the aim to include support for most European languages and Cyrillic letters as well. Some similarities may present to predecessor Fallout fonts, but those are because both are based off the Fallout games.\n\nSince the aim was for this font was to resemble the dialog font of Fallout 1/2 games at low size, one should not use this font at 8-10px size in comercial releases to avoid legal issues with current owners of the Fallout franchise, but this copyright does not restrict such use.
UComments: "2022-12-17: Created with FontForge (http://fontforge.org)"
Version: 1.00
ItalicAngle: 0
UnderlinePosition: -101
UnderlineWidth: 50
Ascent: 819
Descent: 205
InvalidEm: 0
sfntRevision: 0x00010000
LayerCount: 2
Layer: 0 1 "Back" 1
Layer: 1 1 "Fore" 0
XUID: [1021 448 459894302 26878]
FSType: 0
OS2Version: 0
OS2_WeightWidthSlopeOnly: 0
OS2_UseTypoMetrics: 1
CreationTime: 1671241044
ModificationTime: 1673213532
PfmFamily: 17
TTFWeight: 400

StartChar: c
Encoding: 99 99 0
Width: 600
Flags: W
LayerCount: 2
Fore
SplineSet
250 511.799804688 m 2,0,-1
 500 511.799804688 l 1,1,-1
 500 409.400390625 l 1,2,-1
 250 409.400390625 l 1,3,-1
 200 359 l 1,4,-1
 200 153.400390625 l 1,5,-1
 250 102.200195312 l 1,6,-1
 500 102.200195312 l 1,7,-1
 500 -0.2001953125 l 1,8,-1
 250 -0.2001953125 l 2,9,10
 196.341646456 0.417637216488 196.341646456 0.417637216488 151.372974633 18.4430922987 c 128,-1,11
 106.40430281 36.4685473808 106.40430281 36.4685473808 77.3310184225 66.4230342446 c 128,-1,12
 48.2577340352 96.3775211083 48.2577340352 96.3775211083 27.9026090852 135.008764452 c 128,-1,13
 7.54748413527 173.640007796 7.54748413527 173.640007796 3.12200993482 216.128423155 c 128,-1,14
 -1.30346426564 258.616838513 -1.30346426564 258.616838513 3.01731298185 301.007210526 c 128,-1,15
 7.33809022933 343.397582538 7.33809022933 343.397582538 27.6227815398 381.573266798 c 128,-1,16
 47.9074728502 419.748951058 47.9074728502 419.748951058 76.9665076192 449.051792144 c 128,-1,17
 106.025542388 478.354633231 106.025542388 478.354633231 151.082754534 495.370926799 c 128,-1,18
 196.139966679 512.387220366 196.139966679 512.387220366 250 511.799804688 c 2,0,-1
EndSplineSet
EndChar

StartChar: A
Encoding: 65 65 1
Width: 900
Flags: W
LayerCount: 2
Fore
SplineSet
624 331 m 1,0,-1
 625 561 l 1,1,-1
 422 331 l 1,2,-1
 624 331 l 1,0,-1
800 716.599609375 m 1,3,-1
 800 -0.2001953125 l 1,4,-1
 624 -0.2001953125 l 1,5,-1
 624 204.599609375 l 1,6,-1
 300 204.599609375 l 1,7,-1
 100 -0.2001953125 l 1,8,-1
 0 -0.1513671875 l 1,9,-1
 0 102.200195312 l 1,10,-1
 600 716.599609375 l 1,11,-1
 800 716.599609375 l 1,3,-1
EndSplineSet
EndChar

StartChar: p
Encoding: 112 112 2
Width: 694
Flags: W
LayerCount: 2
Fore
SplineSet
350 102.200195312 m 1,0,-1
 400 153.400390625 l 1,1,-1
 400 359 l 1,2,-1
 350 409.400390625 l 1,3,-1
 200 409.400390625 l 1,4,-1
 200 102.200195312 l 1,5,-1
 350 102.200195312 l 1,0,-1
0 511.799804688 m 1,6,-1
 350 511.799804688 l 2,7,8
 402.905670291 511.799804688 402.905670291 511.799804688 447.283459403 494.321767584 c 128,-1,9
 491.661248516 476.84373048 491.661248516 476.84373048 520.393696268 447.267618026 c 128,-1,10
 549.12614402 417.691505572 549.12614402 417.691505572 569.272062155 379.347112663 c 128,-1,11
 589.417980291 341.002719754 589.417980291 341.002719754 593.847986713 298.608131572 c 128,-1,12
 598.277993135 256.21354339 598.277993135 256.21354339 594.063616296 213.804556507 c 128,-1,13
 589.849239458 171.395569624 589.849239458 171.395569624 569.848380553 132.984267546 c 128,-1,14
 549.847521648 94.5729654676 549.847521648 94.5729654676 521.144425839 64.9011464418 c 128,-1,15
 492.441330029 35.2293274159 492.441330029 35.2293274159 447.8811818 17.6030732727 c 128,-1,16
 403.321033572 -0.0231808704412 403.321033572 -0.0231808704412 350 -0.2001953125 c 2,17,-1
 202.993164062 -0.2001953125 l 1,18,-1
 200 -205 l 1,19,-1
 0 -205 l 1,20,-1
 0 511.799804688 l 1,6,-1
EndSplineSet
EndChar

StartChar: a
Encoding: 97 97 3
Width: 700
Flags: W
LayerCount: 2
Fore
SplineSet
250 102.200195312 m 1,0,-1
 400 102.200195312 l 1,1,-1
 400 409.400390625 l 1,2,-1
 250 409.400390625 l 1,3,-1
 200 359 l 1,4,-1
 200 153.400390625 l 1,5,-1
 250 102.200195312 l 1,0,-1
600 511.799804688 m 1,6,-1
 600 -0.2001953125 l 1,7,-1
 500 -0.2001953125 l 1,8,-1
 250 -0.2001953125 l 2,9,10
 196.678966428 -0.0231808704412 196.678966428 -0.0231808704412 152.1188182 17.6030732727 c 128,-1,11
 107.558669971 35.2293274159 107.558669971 35.2293274159 78.8555741614 64.9011464418 c 128,-1,12
 50.1524783519 94.5729654676 50.1524783519 94.5729654676 30.1516194471 132.984267546 c 128,-1,13
 10.1507605423 171.395569624 10.1507605423 171.395569624 5.93638370362 213.804556507 c 128,-1,14
 1.72200686497 256.21354339 1.72200686497 256.21354339 6.15201328712 298.608131572 c 128,-1,15
 10.5820197093 341.002719754 10.5820197093 341.002719754 30.7279378446 379.347112663 c 128,-1,16
 50.8738559799 417.691505572 50.8738559799 417.691505572 79.6063037321 447.267618026 c 128,-1,17
 108.338751484 476.84373048 108.338751484 476.84373048 152.716540597 494.321767584 c 128,-1,18
 197.094329709 511.799804688 197.094329709 511.799804688 250 511.799804688 c 2,19,-1
 500 511.799804688 l 1,20,-1
 600 511.799804688 l 1,6,-1
EndSplineSet
EndChar

StartChar: B
Encoding: 66 66 4
Width: 726
Flags: W
LayerCount: 2
Fore
SplineSet
428.59375 129.416015625 m 1,0,-1
 479.137695312 180.94140625 l 1,1,2
 479.929217119 193.006141549 479.929217119 193.006141549 479.245117188 244.162109375 c 1,3,-1
 428.806640625 293.858398438 l 1,4,-1
 151.735351562 294.151367188 l 1,5,-1
 151.321289062 128.830078125 l 1,6,-1
 428.59375 129.416015625 l 1,0,-1
427.264648438 423.875976562 m 1,7,-1
 476.345703125 474.327148438 l 1,8,-1
 477.249023438 536.668945312 l 1,9,-1
 427.951171875 588.590820312 l 1,10,-1
 149.9921875 588.833007812 l 1,11,-1
 149.75 424.21875 l 1,12,-1
 427.264648438 423.875976562 l 1,7,-1
0 716.599609375 m 1,13,-1
 151.40625 716.099609375 l 1,14,-1
 450 716.599609375 l 2,15,16
 492.47750678 716.954727398 492.47750678 716.954727398 527.622945023 695.483564632 c 128,-1,17
 562.768383265 674.012401866 562.768383265 674.012401866 583.765808233 640.363562647 c 128,-1,18
 604.7632332 606.714723428 604.7632332 606.714723428 614.514673177 564.882843061 c 128,-1,19
 624.266113153 523.050962694 624.266113153 523.050962694 620.38274255 483.634504487 c 128,-1,20
 616.499371946 444.21804628 616.499371946 444.21804628 597.160958622 410.198462635 c 128,-1,21
 577.822545298 376.178878991 577.822545298 376.178878991 545.067382812 359.104492188 c 1,22,23
 578.493722079 343.159322235 578.493722079 343.159322235 599.308905987 309.719440932 c 128,-1,24
 620.124089895 276.279559628 620.124089895 276.279559628 625.676486265 236.85152261 c 128,-1,25
 631.228882636 197.423485592 631.228882636 197.423485592 622.493521511 155.267491423 c 128,-1,26
 613.758160386 113.111497255 613.758160386 113.111497255 592.811324228 78.9224138138 c 128,-1,27
 571.864488071 44.7333303728 571.864488071 44.7333303728 534.638097972 22.6371564987 c 128,-1,28
 497.411707873 0.540982624649 497.411707873 0.540982624649 450.709960938 0.4208984375 c 2,29,-1
 0 -0.2001953125 l 1,30,-1
 0 716.599609375 l 1,13,-1
EndSplineSet
EndChar

StartChar: b
Encoding: 98 98 5
Width: 697
Flags: W
LayerCount: 2
Fore
SplineSet
350 102.200195312 m 1,0,-1
 400 153.400390625 l 1,1,-1
 400 359 l 1,2,-1
 350 409.400390625 l 1,3,-1
 200 409.400390625 l 1,4,-1
 200 102.200195312 l 1,5,-1
 350 102.200195312 l 1,0,-1
0 716.599609375 m 1,6,-1
 200 716.599609375 l 1,7,-1
 200.497070312 511.799804688 l 1,8,-1
 350 511.799804688 l 2,9,10
 403.542506504 511.970690389 403.542506504 511.970690389 448.456229327 494.636459324 c 128,-1,11
 493.36995215 477.302228259 493.36995215 477.302228259 522.451033405 447.81960742 c 128,-1,12
 551.53211466 418.336986581 551.53211466 418.336986581 571.923781732 380.058489717 c 128,-1,13
 592.315448804 341.779992852 592.315448804 341.779992852 596.801518873 299.400387491 c 128,-1,14
 601.287588942 257.02078213 601.287588942 257.02078213 597.024435988 214.598672115 c 128,-1,15
 592.761283034 172.1765621 592.761283034 172.1765621 572.519577643 133.700624867 c 128,-1,16
 552.277872252 95.2246876332 552.277872252 95.2246876332 523.227134998 65.4596171171 c 128,-1,17
 494.176397744 35.694546601 494.176397744 35.694546601 449.074152618 17.9229301437 c 128,-1,18
 403.971907491 0.15131368645 403.971907491 0.15131368645 350 -0.2001953125 c 2,19,-1
 0 -0.2001953125 l 1,20,-1
 0 716.599609375 l 1,6,-1
EndSplineSet
EndChar

StartChar: C
Encoding: 67 67 6
Width: 700
Flags: W
LayerCount: 2
Fore
SplineSet
600 -0.2001953125 m 1,0,-1
 200 -0.2001953125 l 1,1,2
 135.244832825 11.7917625546 135.244832825 11.7917625546 88.820089877 66.5231868241 c 128,-1,3
 42.395346929 121.254611094 42.395346929 121.254611094 22.0002633131 195.901414413 c 128,-1,4
 1.60517969718 270.548217732 1.60517969718 270.548217732 2.29385832322 356.776867018 c 128,-1,5
 2.98253694925 443.005516304 2.98253694925 443.005516304 24.5252199103 517.960623036 c 128,-1,6
 46.0679028713 592.915729767 46.0679028713 592.915729767 91.9762856236 648.297148774 c 128,-1,7
 137.884668376 703.678567782 137.884668376 703.678567782 200 716.599609375 c 1,8,-1
 600 716.599609375 l 1,9,-1
 600 570.599609375 l 1,10,-1
 249 569.599609375 l 1,11,-1
 200 516.599609375 l 1,12,-1
 201 194.799804688 l 1,13,-1
 250 140.799804688 l 1,14,-1
 600 139.799804688 l 1,15,-1
 600 -0.2001953125 l 1,0,-1
EndSplineSet
EndChar

StartChar: D
Encoding: 68 68 7
Width: 732
Flags: W
LayerCount: 2
Fore
SplineSet
178.5 153.799804688 m 1,0,-1
 401 154.907226562 l 1,1,-1
 445 202.907226562 l 1,2,-1
 445 511.5 l 1,3,-1
 400 563 l 1,4,-1
 178 561.892578125 l 1,5,-1
 178.5 153.799804688 l 1,0,-1
0 716.599609375 m 1,6,-1
 317 718 l 2,7,8
 403.227195008 718.380788107 403.227195008 718.380788107 471.794353433 679.316042443 c 128,-1,9
 540.361511858 640.25129678 540.361511858 640.25129678 576.487255304 577.420590324 c 128,-1,10
 612.612998749 514.589883867 612.612998749 514.589883867 630.216866189 438.46176379 c 128,-1,11
 647.820733628 362.333643713 647.820733628 362.333643713 631.941536235 285.964834584 c 128,-1,12
 616.062338842 209.596025455 616.062338842 209.596025455 580.811413382 146.252779415 c 128,-1,13
 545.560487922 82.9095333751 545.560487922 82.9095333751 475.784847778 42.8508700247 c 128,-1,14
 406.009207634 2.79220667425 406.009207634 2.79220667425 316 1.9072265625 c 2,15,-1
 -0 -1.2001953125 l 1,16,-1
 0 716.599609375 l 1,6,-1
EndSplineSet
EndChar

StartChar: s
Encoding: 115 115 8
Width: 697
Flags: W
LayerCount: 2
Fore
SplineSet
150 511.799804688 m 2,0,-1
 550.017578125 511.80078125 l 1,1,-1
 550 409.400390625 l 1,2,-1
 227.708984375 409.400390625 l 1,3,-1
 200 376.096679688 l 1,4,-1
 200 332.349609375 l 1,5,-1
 227.373046875 307.000976562 l 1,6,-1
 450 307 l 2,7,8
 491.156462585 307 491.156462585 307 523.469387755 290.057715176 c 128,-1,9
 555.782312925 273.115430352 555.782312925 273.115430352 572.448979592 246.022701756 c 128,-1,10
 589.115646259 218.929973161 589.115646259 218.929973161 596.93877551 186.164937752 c 128,-1,11
 604.761904762 153.399902344 604.761904762 153.399902344 596.93877551 120.634866935 c 128,-1,12
 589.115646259 87.8698315264 589.115646259 87.8698315264 572.448979592 60.777102931 c 128,-1,13
 555.782312925 33.6843743357 555.782312925 33.6843743357 523.469387755 16.7420895116 c 128,-1,14
 491.156462585 -0.2001953125 491.156462585 -0.2001953125 450 -0.2001953125 c 2,15,-1
 0 -0.2001953125 l 1,16,-1
 -0.017578125 102.19921875 l 1,17,-1
 376 102.200195312 l 1,18,-1
 401.250976562 127.737304688 l 1,19,-1
 401.268554688 173.943359375 l 1,20,-1
 373.188476562 202.6015625 l 1,21,-1
 150 204.599609375 l 2,22,23
 102.900160048 204.599609375 102.900160048 204.599609375 68.7192626953 227.355179398 c 128,-1,24
 34.5383653429 250.110749421 34.5383653429 250.110749421 19.5866048177 284.244104456 c 128,-1,25
 4.63484429253 318.377459491 4.63484429253 318.377459491 5.05050726997 358.199707031 c 128,-1,26
 5.4661702474 398.021954572 5.4661702474 398.021954572 21.0981065538 432.155309606 c 128,-1,27
 36.7300428602 466.288664641 36.7300428602 466.288664641 70.6086398655 489.044234664 c 128,-1,28
 104.487236871 511.799804688 104.487236871 511.799804688 150 511.799804688 c 2,0,-1
EndSplineSet
EndChar

StartChar: d
Encoding: 100 100 9
Width: 700
Flags: W
LayerCount: 2
Fore
SplineSet
250 102.200195312 m 1,0,-1
 400 102.200195312 l 1,1,-1
 400 409.400390625 l 1,2,-1
 250 409.400390625 l 1,3,-1
 200 359 l 1,4,-1
 200 153.400390625 l 1,5,-1
 250 102.200195312 l 1,0,-1
600 716.599609375 m 1,6,-1
 600 -0.2001953125 l 1,7,-1
 250 -0.2001953125 l 2,8,9
 196.028092509 0.15131368645 196.028092509 0.15131368645 150.925847382 17.9229301437 c 128,-1,10
 105.823602256 35.694546601 105.823602256 35.694546601 76.7728650019 65.4596171171 c 128,-1,11
 47.7221277477 95.2246876332 47.7221277477 95.2246876332 27.4804223566 133.700624867 c 128,-1,12
 7.23871696551 172.1765621 7.23871696551 172.1765621 2.9755640117 214.598672115 c 128,-1,13
 -1.2875889421 257.02078213 -1.2875889421 257.02078213 3.19848112718 299.400387491 c 128,-1,14
 7.68455119647 341.779992852 7.68455119647 341.779992852 28.0762182684 380.058489717 c 128,-1,15
 48.4678853403 418.336986581 48.4678853403 418.336986581 77.5489665953 447.81960742 c 128,-1,16
 106.63004785 477.302228259 106.63004785 477.302228259 151.543770673 494.636459324 c 128,-1,17
 196.457493496 511.970690389 196.457493496 511.970690389 250 511.799804688 c 2,18,-1
 399.502929688 511.799804688 l 1,19,-1
 400 716.599609375 l 1,20,-1
 600 716.599609375 l 1,6,-1
EndSplineSet
EndChar

StartChar: E
Encoding: 69 69 10
Width: 700
Flags: W
LayerCount: 2
Fore
SplineSet
0 716.169921875 m 1,0,-1
 600 716.599609375 l 1,1,-1
 600 585.928710938 l 1,2,-1
 180.833007812 585.928710938 l 1,3,-1
 180.833007812 423.920898438 l 1,4,-1
 600 423.920898438 l 1,5,-1
 600 292.025390625 l 1,6,-1
 180.833007812 292.025390625 l 1,7,-1
 180.833007812 127.75390625 l 1,8,-1
 600 127.868164062 l 1,9,-1
 600 0.1220703125 l 1,10,-1
 0 -0.2001953125 l 1,11,-1
 0 716.169921875 l 1,0,-1
EndSplineSet
EndChar

StartChar: F
Encoding: 70 70 11
Width: 700
Flags: W
LayerCount: 2
Fore
SplineSet
0 716.169921875 m 1,0,-1
 600 716.599609375 l 1,1,-1
 600 585.928710938 l 1,2,-1
 180.833007812 585.928710938 l 1,3,-1
 180.833007812 423.920898438 l 1,4,-1
 552 423.920898438 l 1,5,-1
 552 292.025390625 l 1,6,-1
 180.833007812 292.025390625 l 1,7,-1
 180 -0.2001953125 l 1,8,-1
 0 -0.2001953125 l 1,9,-1
 0 716.169921875 l 1,0,-1
EndSplineSet
EndChar

StartChar: G
Encoding: 71 71 12
Width: 750
Flags: W
LayerCount: 2
Fore
SplineSet
0 460.599609375 m 2,0,1
 0 575.799944196 0 575.799944196 68.7499489102 646.199776786 c 128,-1,2
 137.49989782 716.599609375 137.49989782 716.599609375 250 716.599609375 c 2,3,-1
 650 716.599609375 l 1,4,-1
 650 562 l 1,5,-1
 232 562 l 1,6,-1
 182 510.799804688 l 1,7,-1
 182 204.599609375 l 1,8,-1
 232 153.400390625 l 1,9,-1
 500 153.400390625 l 1,10,-1
 500 277.916015625 l 1,11,-1
 326 277.916015625 l 1,12,-1
 326 409.400390625 l 1,13,-1
 650 409.400390625 l 1,14,-1
 650 204.599609375 l 2,15,16
 650 89.3998535156 650 89.3998535156 606.249976158 44.5998291016 c 128,-1,17
 562.499952316 -0.2001953125 562.499952316 -0.2001953125 450 -0.2001953125 c 2,18,-1
 250 -0.2001953125 l 2,19,20
 137.546525083 -0.2001953125 137.546525083 -0.2001953125 68.7732625417 70.2760881696 c 128,-1,21
 0 140.752371652 0 140.752371652 0 255.799804688 c 2,22,-1
 0 460.599609375 l 2,0,1
EndSplineSet
EndChar

StartChar: H
Encoding: 72 72 13
Width: 750
Flags: W
LayerCount: 2
Fore
SplineSet
650 716.599609375 m 1,0,-1
 650 -0.2001953125 l 1,1,-1
 484 -0.2001953125 l 1,2,-1
 484 275.079101562 l 1,3,-1
 186 275.079101562 l 1,4,-1
 186 -0.2001953125 l 1,5,-1
 0 -0.2001953125 l 1,6,-1
 0 716.599609375 l 1,7,-1
 186 716.599609375 l 1,8,-1
 186 440.24609375 l 1,9,-1
 484 440.24609375 l 1,10,-1
 484 716.599609375 l 1,11,-1
 650 716.599609375 l 1,0,-1
EndSplineSet
EndChar

StartChar: I
Encoding: 73 73 14
Width: 300
Flags: W
LayerCount: 2
Fore
SplineSet
200 -0.2001953125 m 1,0,-1
 0 -0.2001953125 l 1,1,-1
 0 716.599609375 l 1,2,-1
 200 716.599609375 l 1,3,-1
 200 -0.2001953125 l 1,0,-1
EndSplineSet
EndChar

StartChar: J
Encoding: 74 74 15
Width: 750
Flags: W
LayerCount: 2
Fore
SplineSet
650 716.599609375 m 1,0,-1
 650 152.099609375 l 2,1,2
 650 102.261908637 650 102.261908637 601.851851852 65.8456477865 c 128,-1,3
 553.703703704 29.4293869358 553.703703704 29.4293869358 481.481481481 13.2621809896 c 128,-1,4
 409.259259259 -2.9050249566 409.259259259 -2.9050249566 325 -2.70426540799 c 128,-1,5
 240.740740741 -2.50350585938 240.740740741 -2.50350585938 168.518518519 13.9922157118 c 128,-1,6
 96.2962962963 30.487937283 96.2962962963 30.487937283 48.1481481481 66.7581911892 c 128,-1,7
 0 103.028445095 0 103.028445095 0 152.099609375 c 2,8,-1
 0 307 l 1,9,-1
 178 307 l 1,10,-1
 178 178.900390625 l 1,11,-1
 228 127.700195312 l 1,12,-1
 418 127.700195312 l 1,13,-1
 468 178.900390625 l 1,14,-1
 468 716.599609375 l 1,15,-1
 650 716.599609375 l 1,0,-1
EndSplineSet
EndChar

StartChar: K
Encoding: 75 75 16
Width: 717
Flags: W
LayerCount: 2
Fore
SplineSet
-33.0322265625 716.599609375 m 1,0,-1
 144.967773438 716.599609375 l 1,1,-1
 144.967773438 409.200195312 l 1,2,-1
 216.967773438 409.400390625 l 1,3,-1
 516.967773438 716.799804688 l 1,4,-1
 616.967773438 716.599609375 l 1,5,-1
 616.967773438 613.200195312 l 1,6,-1
 338.967773438 331.200195312 l 1,7,-1
 616.967773438 51 l 1,8,-1
 616.967773438 -0.2001953125 l 1,9,-1
 464.967773438 0 l 1,10,-1
 214.967773438 256 l 1,11,-1
 144.967773438 255.799804688 l 1,12,-1
 144.967773438 -0.2001953125 l 1,13,-1
 -33.0322265625 -0.2001953125 l 1,14,-1
 -33.0322265625 716.599609375 l 1,0,-1
EndSplineSet
EndChar

StartChar: L
Encoding: 76 76 17
Width: 700
Flags: W
LayerCount: 2
Fore
SplineSet
178 716.599609375 m 1,0,-1
 178 132.200195312 l 1,1,-1
 600 132.200195312 l 1,2,-1
 600 -0.2001953125 l 1,3,-1
 0 -1.244140625 l 1,4,-1
 0 716.599609375 l 1,5,-1
 178 716.599609375 l 1,0,-1
EndSplineSet
EndChar

StartChar: M
Encoding: 77 77 18
Width: 800
Flags: W
LayerCount: 2
Fore
SplineSet
0 716.599609375 m 1,0,-1
 500.5 718.400390625 l 2,1,2
 592.340743204 718.400390625 592.340743204 718.400390625 646.039774764 648.014044805 c 128,-1,3
 699.738806324 577.627698986 699.738806324 577.627698986 699.70703125 461.400390625 c 2,4,-1
 699 1 l 1,5,-1
 549 1 l 1,6,-1
 550 511.799804688 l 1,7,-1
 495 563 l 1,8,-1
 450 563 l 1,9,-1
 449 1 l 1,10,-1
 299 1 l 1,11,-1
 300 563 l 1,12,-1
 250 563 l 1,13,-1
 176 562.599609375 l 1,14,-1
 175 0.599609375 l 1,15,-1
 -1 0.7998046875 l 1,16,-1
 0 716.599609375 l 1,0,-1
EndSplineSet
EndChar

StartChar: N
Encoding: 78 78 19
Width: 776
Flags: W
LayerCount: 2
Fore
SplineSet
0 716.599609375 m 1,0,-1
 180 716.599609375 l 1,1,-1
 180.0859375 714.799804688 l 1,2,-1
 500 409.400390625 l 1,3,-1
 500 716.599609375 l 1,4,-1
 676 716.599609375 l 1,5,-1
 676 0.599609375 l 1,6,-1
 500 0.599609375 l 1,7,-1
 500 204.599609375 l 1,8,-1
 180 511.799804688 l 1,9,-1
 180 0.599609375 l 1,10,-1
 0 0.599609375 l 1,11,-1
 0 716.599609375 l 1,0,-1
EndSplineSet
EndChar

StartChar: h
Encoding: 104 104 20
Width: 700
Flags: W
LayerCount: 2
Fore
SplineSet
0 716.599609375 m 1,0,-1
 200 716.599609375 l 1,1,-1
 200 511.799804688 l 1,2,-1
 350 511.799804688 l 2,3,4
 406.535163104 511.799804688 406.535163104 511.799804688 452.416895388 489.80997526 c 128,-1,5
 498.298627672 467.820145833 498.298627672 467.820145833 524.783104612 436.407384115 c 128,-1,6
 551.267581552 404.994622396 551.267581552 404.994622396 569.216895388 367.48050651 c 128,-1,7
 587.166209224 329.966390625 587.166209224 329.966390625 593.583104612 301.981821615 c 128,-1,8
 600 273.997252604 600 273.997252604 600 255.799804688 c 2,9,-1
 600 -0.2001953125 l 1,10,-1
 400 -0.2001953125 l 1,11,-1
 400 357.400390625 l 1,12,-1
 350 409.400390625 l 1,13,-1
 200 409.400390625 l 1,14,-1
 200 -0.2001953125 l 1,15,-1
 0 -0.2001953125 l 1,16,-1
 0 716.599609375 l 1,0,-1
EndSplineSet
EndChar

StartChar: O
Encoding: 79 79 21
Width: 800
Flags: W
LayerCount: 2
Fore
SplineSet
452 575.799804688 m 1,0,-1
 248 575.799804688 l 1,1,-1
 176 502.599609375 l 1,2,-1
 176 212.599609375 l 1,3,-1
 250 137.400390625 l 1,4,-1
 450 137.400390625 l 1,5,-1
 524 212.599609375 l 1,6,-1
 524 502.599609375 l 1,7,-1
 452 575.799804688 l 1,0,-1
349 734.400390625 m 0,8,9
 516.455058013 734.400390625 516.455058013 734.400390625 608.227529006 634.778048533 c 128,-1,10
 700 535.155706442 700 535.155706442 700 359 c 0,11,12
 700 185.811408277 700 185.811408277 607.807666596 84.8056064822 c 128,-1,13
 515.615333191 -16.2001953125 515.615333191 -16.2001953125 349 -16.2001953125 c 128,-1,14
 182.349272308 -16.2001953125 182.349272308 -16.2001953125 91.1746361539 85.3063941617 c 128,-1,15
 0 186.812983636 0 186.812983636 0 363 c 0,16,17
 0 536.676050682 0 536.676050682 91.0115517589 635.538220654 c 128,-1,18
 182.023103518 734.400390625 182.023103518 734.400390625 349 734.400390625 c 0,8,9
EndSplineSet
EndChar

StartChar: P
Encoding: 80 80 22
Width: 700
Flags: W
LayerCount: 2
Fore
SplineSet
150 383 m 1,0,-1
 400 383 l 1,1,-1
 450 433.400390625 l 1,2,-1
 450 534 l 1,3,-1
 400 585.200195312 l 1,4,-1
 150 585.200195312 l 1,5,-1
 150 383 l 1,0,-1
0 -2 m 1,6,-1
 0 716.599609375 l 1,7,-1
 400 716.599609375 l 2,8,9
 480.820714718 716.599609375 480.820714718 716.599609375 540.410357359 654.149780273 c 128,-1,10
 600 591.699951172 600 591.699951172 600 482.599609375 c 0,11,12
 600 427.089032854 600 427.089032854 582.966427894 382.71051752 c 128,-1,13
 565.932855788 338.332002186 565.932855788 338.332002186 537.346072106 311.251640683 c 128,-1,14
 508.759288424 284.171279181 508.759288424 284.171279181 473.591427894 269.985541934 c 128,-1,15
 438.423567364 255.799804688 438.423567364 255.799804688 400 255.799804688 c 2,16,-1
 150 255.799804688 l 1,17,-1
 150 -0.2001953125 l 1,18,-1
 0 -2 l 1,6,-1
EndSplineSet
EndChar

StartChar: Q
Encoding: 81 81 23
Width: 800
Flags: W
LayerCount: 2
Fore
SplineSet
452 575.799804688 m 1,0,-1
 248 575.799804688 l 1,1,-1
 176 502.599609375 l 1,2,-1
 176 212.599609375 l 1,3,-1
 250 137.400390625 l 1,4,-1
 288 137.400390625 l 1,5,-1
 288 255.799804688 l 1,6,-1
 412 255.799804688 l 1,7,-1
 412 137.400390625 l 1,8,-1
 450 137.400390625 l 1,9,-1
 524 212.599609375 l 1,10,-1
 524 502.599609375 l 1,11,-1
 452 575.799804688 l 1,0,-1
349 734.400390625 m 0,12,13
 516.455058013 734.400390625 516.455058013 734.400390625 608.227529006 634.778048533 c 128,-1,14
 700 535.155706442 700 535.155706442 700 359 c 0,15,16
 700 185.811408277 700 185.811408277 607.807666596 84.8056064822 c 128,-1,17
 515.615333191 -16.2001953125 515.615333191 -16.2001953125 349 -16.2001953125 c 128,-1,18
 182.349272308 -16.2001953125 182.349272308 -16.2001953125 91.1746361539 85.3063941617 c 128,-1,19
 0 186.812983636 0 186.812983636 0 363 c 0,20,21
 0 536.676050682 0 536.676050682 91.0115517589 635.538220654 c 128,-1,22
 182.023103518 734.400390625 182.023103518 734.400390625 349 734.400390625 c 0,12,13
388.98828125 -12.9462890625 m 1,23,-1
 561.25390625 -12.7998046875 l 1,24,-1
 662.74609375 -93.2001953125 l 1,25,-1
 388.74609375 -93.2001953125 l 1,26,-1
 388.98828125 -12.9462890625 l 1,23,-1
EndSplineSet
EndChar

StartChar: R
Encoding: 82 82 24
Width: 740
Flags: W
LayerCount: 2
Fore
SplineSet
636 147.079101562 m 2,0,-1
 636 -0.2001953125 l 1,1,-1
 472 -0.2001953125 l 1,2,-1
 472 194.776367188 l 1,3,-1
 412 245.799804688 l 1,4,-1
 412 389 l 1,5,6
 459.069041615 389 459.069041615 389 513.100593737 344.619033939 c 128,-1,7
 567.132145859 300.238067877 567.132145859 300.238067877 601.56607293 243.140406166 c 128,-1,8
 636 186.042744454 636 186.042744454 636 147.079101562 c 2,0,-1
160 389 m 1,9,-1
 412 389 l 1,10,-1
 470 439.400390625 l 1,11,-1
 470 534 l 1,12,-1
 412 585.200195312 l 1,13,-1
 160 585.200195312 l 1,14,-1
 160 389 l 1,9,-1
-2 -0.2001953125 m 1,15,-1
 0 716.599609375 l 1,16,-1
 426 716.599609375 l 2,17,18
 449.645745288 716.599609375 449.645745288 716.599609375 476.749718161 709.756192663 c 128,-1,19
 503.853691034 702.91277595 503.853691034 702.91277595 533.218281839 686.665651087 c 128,-1,20
 562.582872644 670.418526225 562.582872644 670.418526225 586.061718161 647.125989538 c 128,-1,21
 609.540563678 623.83345285 609.540563678 623.83345285 624.770281839 587.171307337 c 128,-1,22
 640 550.509161825 640 550.509161825 640 506.599609375 c 0,23,24
 640 463.356994452 640 463.356994452 618.637054678 420.967615843 c 128,-1,25
 597.274109356 378.578237233 597.274109356 378.578237233 566.610945322 348.35361072 c 128,-1,26
 535.947781289 318.128984207 535.947781289 318.128984207 502.669054678 294.174084593 c 128,-1,27
 469.390328067 270.219184978 469.390328067 270.219184978 444.882945322 258.18398572 c 128,-1,28
 420.375562577 246.148786462 420.375562577 246.148786462 412 245.799804688 c 2,29,-1
 160 245.799804688 l 1,30,-1
 160 -0.2001953125 l 1,31,-1
 -2 -0.2001953125 l 1,15,-1
EndSplineSet
EndChar

StartChar: S
Encoding: 83 83 25
Width: 736
Flags: W
LayerCount: 2
Fore
SplineSet
190 716.599609375 m 2,0,-1
 580 716.599609375 l 1,1,-1
 580 583.200195312 l 1,2,-1
 190 584.200195312 l 1,3,-1
 142 533 l 1,4,-1
 142 471.799804688 l 1,5,-1
 192 417.400390625 l 1,6,-1
 450 417.400390625 l 2,7,8
 490.475015545 417.239135583 490.475015545 417.239135583 524.33714335 402.854174066 c 128,-1,9
 558.199271155 388.469212549 558.199271155 388.469212549 580.03322702 364.282315614 c 128,-1,10
 601.867182885 340.095418679 601.867182885 340.095418679 617.110805901 308.798623869 c 128,-1,11
 632.354428918 277.501829059 632.354428918 277.501829059 635.597013029 242.985574573 c 128,-1,12
 638.839597139 208.469320087 638.839597139 208.469320087 635.514098083 173.992398517 c 128,-1,13
 632.188599026 139.515476948 632.188599026 139.515476948 616.889194099 108.401571444 c 128,-1,14
 601.589789171 77.2876659398 601.589789171 77.2876659398 579.744550757 53.3623241431 c 128,-1,15
 557.899312344 29.4369823465 557.899312344 29.4369823465 524.107301094 15.4571323576 c 128,-1,16
 490.315289845 1.47728236874 490.315289845 1.47728236874 450 1.7998046875 c 2,17,-1
 0 -0.2001953125 l 1,18,-1
 0 126.200195312 l 1,19,-1
 450 126.200195312 l 1,20,-1
 500 177.400390625 l 1,21,-1
 500 228 l 1,22,-1
 450 278.200195312 l 1,23,-1
 192 279.200195312 l 2,24,25
 152.478500971 279.038883072 152.478500971 279.038883072 118.840583415 293.86637324 c 128,-1,26
 85.2026658592 308.693863409 85.2026658592 308.693863409 62.9865770786 333.919108531 c 128,-1,27
 40.770488298 359.144353653 40.770488298 359.144353653 24.8104050888 391.895871054 c 128,-1,28
 8.85032187956 424.647388455 8.85032187956 424.647388455 4.75063743524 460.896715912 c 128,-1,29
 0.650952990917 497.14604337 0.650952990917 497.14604337 3.17528849069 533.421607294 c 128,-1,30
 5.69962399046 569.697171218 5.69962399046 569.697171218 20.5229282446 602.5706003 c 128,-1,31
 35.3462324987 635.444029383 35.3462324987 635.444029383 57.1615710696 660.84365912 c 128,-1,32
 78.9769096405 686.243288857 78.9769096405 686.243288857 113.529786955 701.340838855 c 128,-1,33
 148.08266427 716.438388853 148.08266427 716.438388853 190 716.599609375 c 2,0,-1
EndSplineSet
EndChar

StartChar: T
Encoding: 84 84 26
Width: 800
Flags: W
LayerCount: 2
Fore
SplineSet
0 716.599609375 m 5,0,-1
 700 716.599609375 l 5,1,-1
 700 574.599609375 l 5,2,-1
 436 575 l 5,3,-1
 436 -0.2001953125 l 5,4,-1
 266 -0.2001953125 l 5,5,-1
 266 575 l 5,6,-1
 0 575 l 5,7,-1
 0 716.599609375 l 5,0,-1
EndSplineSet
EndChar

StartChar: U
Encoding: 85 85 27
Width: 750
Flags: W
LayerCount: 2
Fore
SplineSet
0 716.599609375 m 1,0,-1
 177.8515625 716.599609375 l 1,1,-1
 176.4375 179.642578125 l 1,2,-1
 226.4375 128.442382812 l 1,3,-1
 426.4375 128.442382812 l 1,4,-1
 476.4375 179.642578125 l 1,5,-1
 476.4375 716.599609375 l 1,6,-1
 650 716.599609375 l 1,7,-1
 650 -0.2001953125 l 1,8,-1
 524 -0.2001953125 l 1,9,-1
 524 51 l 1,10,-1
 474 -0.2001953125 l 1,11,-1
 325 -0.0263671875 l 2,12,13
 271.952794705 0.0353674536919 271.952794705 0.0353674536919 235.279721094 1.96008594504 c 128,-1,14
 198.606647482 3.8848044364 198.606647482 3.8848044364 161.864929735 9.45717956607 c 128,-1,15
 125.123211989 15.0295546957 125.123211989 15.0295546957 101.58751765 25.4019363459 c 128,-1,16
 78.0518233109 35.7743179961 78.0518233109 35.7743179961 56.9548133452 52.4299155355 c 128,-1,17
 35.8578033795 69.0855130748 35.8578033795 69.0855130748 24.4203460936 93.4982373663 c 128,-1,18
 12.9828888077 117.910961658 12.9828888077 117.910961658 6.49144440386 151.242461089 c 128,-1,19
 0 184.573960521 0 184.573960521 0 228.599609375 c 2,20,-1
 0 716.599609375 l 1,0,-1
EndSplineSet
EndChar

StartChar: V
Encoding: 86 86 28
Width: 800
Flags: W
LayerCount: 2
Fore
SplineSet
0 716.599609375 m 1,0,-1
 150 716.599609375 l 1,1,-1
 332.52734375 156.200195312 l 1,2,-1
 354.665039062 156.200195312 l 1,3,-1
 600 716.599609375 l 1,4,-1
 700 716.599609375 l 1,5,-1
 700 664.400390625 l 1,6,-1
 428 -0.2001953125 l 1,7,-1
 200 -0.2001953125 l 1,8,-1
 0 614.200195312 l 1,9,-1
 0 716.599609375 l 1,0,-1
EndSplineSet
EndChar

StartChar: W
Encoding: 87 87 29
Width: 801
Flags: W
LayerCount: 2
Fore
SplineSet
1 0.7998046875 m 1,0,-1
 0 716.599609375 l 1,1,-1
 160 716.799804688 l 1,2,-1
 161 154.799804688 l 1,3,-1
 235 154.400390625 l 1,4,-1
 285 154.400390625 l 1,5,-1
 284 716.400390625 l 1,6,-1
 438 716.400390625 l 1,7,-1
 439 154.400390625 l 1,8,-1
 496 154.400390625 l 1,9,-1
 551 205.599609375 l 1,10,-1
 550 716.400390625 l 1,11,-1
 700 716.400390625 l 1,12,-1
 700.70703125 256 l 2,13,14
 700.738806324 139.772691639 700.738806324 139.772691639 647.039774764 69.3863458197 c 128,-1,15
 593.340743204 -1 593.340743204 -1 501.5 -1 c 2,16,-1
 1 0.7998046875 l 1,0,-1
EndSplineSet
EndChar

StartChar: Z
Encoding: 90 90 30
Width: 800
Flags: W
LayerCount: 2
Fore
SplineSet
0 716.599609375 m 1,0,-1
 700 716.599609375 l 1,1,-1
 700 550.357421875 l 1,2,-1
 191.016601562 136.073242188 l 1,3,-1
 700 138.354492188 l 1,4,-1
 700 -0.2001953125 l 1,5,-1
 0 -0.2001953125 l 1,6,-1
 0 164.966796875 l 1,7,-1
 508.221679688 573.16796875 l 1,8,-1
 0 572.408203125 l 1,9,-1
 0 716.599609375 l 1,0,-1
EndSplineSet
EndChar

StartChar: X
Encoding: 88 88 31
Width: 800
Flags: W
LayerCount: 2
Fore
SplineSet
0 716.599609375 m 1,0,-1
 123.200195312 716.599609375 l 1,1,-1
 350 485.879882812 l 1,2,-1
 576.799804688 716.599609375 l 1,3,-1
 700 716.599609375 l 1,4,-1
 700 590.040039062 l 1,5,-1
 473.200195312 358.200195312 l 1,6,-1
 700 126.360351562 l 1,7,-1
 700 -0.2001953125 l 1,8,-1
 576.799804688 -0.2001953125 l 1,9,-1
 350 231.639648438 l 1,10,-1
 123.200195312 -0.2001953125 l 1,11,-1
 0 -0.2001953125 l 1,12,-1
 0 126.360351562 l 1,13,-1
 226.799804688 358.200195312 l 1,14,-1
 0 590.040039062 l 1,15,-1
 0 716.599609375 l 1,0,-1
EndSplineSet
EndChar

StartChar: Y
Encoding: 89 89 32
Width: 900
Flags: W
LayerCount: 2
Fore
SplineSet
0 716.599609375 m 1,0,-1
 150 716.599609375 l 1,1,-1
 400 460.599609375 l 1,2,-1
 650 716.599609375 l 1,3,-1
 800 716.599609375 l 1,4,-1
 800 666.400390625 l 1,5,-1
 486 345 l 1,6,-1
 486 -0.2001953125 l 1,7,-1
 314 -0.2001953125 l 1,8,-1
 314 345 l 1,9,-1
 0 664.400390625 l 1,10,-1
 0 716.599609375 l 1,0,-1
EndSplineSet
EndChar

StartChar: q
Encoding: 113 113 33
Width: 700
Flags: W
LayerCount: 2
Fore
SplineSet
250 102.200195312 m 1,0,-1
 400 102.200195312 l 1,1,-1
 400 409.400390625 l 1,2,-1
 250 409.400390625 l 1,3,-1
 200 359 l 1,4,-1
 200 153.400390625 l 1,5,-1
 250 102.200195312 l 1,0,-1
600 511.799804688 m 1,6,-1
 600 -205 l 1,7,-1
 400 -205 l 1,8,-1
 397.006835938 -0.2001953125 l 1,9,-1
 250 -0.2001953125 l 2,10,11
 196.678966428 -0.0231808704412 196.678966428 -0.0231808704412 152.1188182 17.6030732727 c 128,-1,12
 107.558669971 35.2293274159 107.558669971 35.2293274159 78.8555741614 64.9011464418 c 128,-1,13
 50.1524783519 94.5729654676 50.1524783519 94.5729654676 30.1516194471 132.984267546 c 128,-1,14
 10.1507605423 171.395569624 10.1507605423 171.395569624 5.93638370362 213.804556507 c 128,-1,15
 1.72200686497 256.21354339 1.72200686497 256.21354339 6.15201328712 298.608131572 c 128,-1,16
 10.5820197093 341.002719754 10.5820197093 341.002719754 30.7279378446 379.347112663 c 128,-1,17
 50.8738559799 417.691505572 50.8738559799 417.691505572 79.6063037321 447.267618026 c 128,-1,18
 108.338751484 476.84373048 108.338751484 476.84373048 152.716540597 494.321767584 c 128,-1,19
 197.094329709 511.799804688 197.094329709 511.799804688 250 511.799804688 c 2,20,-1
 600 511.799804688 l 1,6,-1
EndSplineSet
EndChar

StartChar: e
Encoding: 101 101 34
Width: 700
Flags: W
LayerCount: 2
Fore
SplineSet
400 307 m 1,0,-1
 400 359 l 1,1,-1
 350 409.400390625 l 1,2,-1
 250 409.400390625 l 1,3,-1
 200 358.200195312 l 1,4,-1
 200 307 l 1,5,-1
 400 307 l 1,0,-1
300 511.799804688 m 0,6,7
 382.907641793 511.799804688 382.907641793 511.799804688 442.271065299 496.16811655 c 128,-1,8
 501.634488805 480.536428412 501.634488805 480.536428412 535.494559701 450.988713284 c 128,-1,9
 569.354630598 421.440998156 569.354630598 421.440998156 584.677315299 383.68575571 c 128,-1,10
 600 345.930513264 600 345.930513264 600 297 c 2,11,-1
 600 245.799804688 l 1,12,-1
 600 204.599609375 l 1,13,-1
 200 204.599609375 l 1,14,-1
 200 153.400390625 l 1,15,-1
 250 102.200195312 l 1,16,-1
 532 102.200195312 l 1,17,-1
 532 -0.2001953125 l 1,18,-1
 300 -0.2001953125 l 2,19,20
 167.346901761 -0.2001953125 167.346901761 -0.2001953125 83.6734508805 56.5001708721 c 128,-1,21
 0 113.200537057 0 113.200537057 0 204.599609375 c 2,22,-1
 0 307 l 2,23,24
 0 399.764913307 0 399.764913307 83.3905255146 455.782358997 c 128,-1,25
 166.781051029 511.799804688 166.781051029 511.799804688 300 511.799804688 c 0,6,7
EndSplineSet
EndChar

StartChar: f
Encoding: 102 102 35
Width: 600
Flags: W
LayerCount: 2
Fore
SplineSet
450 716.599609375 m 2,0,-1
 500 716.599609375 l 1,1,-1
 500 612.700195312 l 1,2,-1
 434 612.700195312 l 1,3,-1
 350 612.700195312 l 1,4,-1
 300 561.5 l 1,5,-1
 300 511.799804688 l 1,6,-1
 500 511.799804688 l 1,7,-1
 500 410.200195312 l 1,8,-1
 300 410.200195312 l 1,9,-1
 300 -0.2001953125 l 1,10,-1
 100 -0.2001953125 l 1,11,-1
 100 410.200195312 l 1,12,-1
 0 410.200195312 l 1,13,-1
 0 511.799804688 l 1,14,-1
 100 511.799804688 l 1,15,16
 100 716.599609375 100 716.599609375 450 716.599609375 c 2,0,-1
EndSplineSet
EndChar

StartChar: g
Encoding: 103 103 36
Width: 700
Flags: W
LayerCount: 2
Fore
SplineSet
250 102.200195312 m 1,0,-1
 400 102.200195312 l 1,1,-1
 399 359 l 1,2,-1
 400 409.400390625 l 1,3,-1
 250 409.400390625 l 1,4,-1
 200 359 l 1,5,-1
 200 153.400390625 l 1,6,-1
 250 102.200195312 l 1,0,-1
600 511.799804688 m 1,7,-1
 600 -43.400390625 l 2,8,9
 600 -118.440014648 600 -118.440014648 550.996341757 -161.720007324 c 128,-1,10
 501.992683515 -205 501.992683515 -205 425 -205 c 2,11,-1
 150.5 -205 l 1,12,-1
 49.5 -205 l 1,13,-1
 50 -102.599609375 l 1,14,-1
 150 -102.599609375 l 1,15,-1
 200 -102.599609375 l 1,16,-1
 324.5 -102.599609375 l 1,17,-1
 374.5 -77 l 1,18,-1
 400 -43.400390625 l 1,19,-1
 400 -0.2001953125 l 1,20,-1
 199.5 -0.2001953125 l 2,21,22
 151.115869795 -0.2001953125 151.115869795 -0.2001953125 112.163486364 21.7998046875 c 128,-1,23
 73.2111029333 43.7998046875 73.2111029333 43.7998046875 49.4863759255 79.7998046875 c 128,-1,24
 25.7616489177 115.799804688 25.7616489177 115.799804688 13.0452574516 161.799804688 c 128,-1,25
 0.328865985481 207.799804688 0.328865985481 207.799804688 0.616396067094 255.799804688 c 128,-1,26
 0.903926148707 303.799804688 0.903926148707 303.799804688 14.0297354484 349.799804688 c 128,-1,27
 27.1555447481 395.799804688 27.1555447481 395.799804688 51.0615407204 431.799804688 c 128,-1,28
 74.9675366927 467.799804688 74.9675366927 467.799804688 113.541755559 489.799804688 c 128,-1,29
 152.115974426 511.799804688 152.115974426 511.799804688 199.5 511.799804688 c 2,30,-1
 550 511.799804688 l 1,31,-1
 600 511.799804688 l 1,7,-1
EndSplineSet
EndChar

StartChar: i
Encoding: 105 105 37
Width: 300
Flags: W
LayerCount: 2
Fore
SplineSet
0 716.599609375 m 1,0,-1
 200 716.897460938 l 1,1,-1
 200 613.6328125 l 1,2,-1
 0 613.200195312 l 1,3,-1
 0 716.599609375 l 1,0,-1
0 511.799804688 m 1,4,-1
 200 512.232421875 l 1,5,-1
 200 -0.2001953125 l 1,6,-1
 0 -0.6328125 l 1,7,-1
 0 511.799804688 l 1,4,-1
EndSplineSet
EndChar

StartChar: j
Encoding: 106 106 38
Width: 700
Flags: W
LayerCount: 2
Fore
SplineSet
400 716.735351562 m 1,0,-1
 600 716.599609375 l 1,1,-1
 600 613.334960938 l 1,2,-1
 400 613.334960938 l 1,3,-1
 400 716.735351562 l 1,0,-1
400 511.935546875 m 1,4,-1
 600 511.935546875 l 1,5,-1
 600 0.0703125 l 2,6,7
 600 -43.6341635622 600 -43.6341635622 579.475308642 -80.2173232718 c 128,-1,8
 558.950617284 -116.800482981 558.950617284 -116.800482981 524.228395062 -140.413982187 c 128,-1,9
 489.50617284 -164.027481393 489.50617284 -164.027481393 444.495884774 -180.529761651 c 128,-1,10
 399.485596708 -197.032041908 399.485596708 -197.032041908 349.742798354 -200.578095592 c 128,-1,11
 300 -204.124149275 300 -204.124149275 250.257201646 -200.56885898 c 128,-1,12
 200.514403292 -197.013568685 200.514403292 -197.013568685 155.504115226 -180.515485745 c 128,-1,13
 110.49382716 -164.017402806 110.49382716 -164.017402806 75.7716049383 -140.427850857 c 128,-1,14
 41.049382716 -116.838298907 41.049382716 -116.838298907 20.524691358 -80.3193882444 c 128,-1,15
 0 -43.8004775813 0 -43.8004775813 0 -0.2001953125 c 1,16,-1
 200 -0.2001953125 l 1,17,-1
 200 -77 l 1,18,-1
 250 -102.599609375 l 1,19,-1
 350 -102.46484375 l 1,20,-1
 400 -76.865234375 l 1,21,-1
 400 0.0703125 l 1,22,-1
 400 511.935546875 l 1,4,-1
EndSplineSet
EndChar

StartChar: k
Encoding: 107 107 39
Width: 700
Flags: W
LayerCount: 2
Fore
SplineSet
0 716.599609375 m 1,0,-1
 200 716.599609375 l 1,1,-1
 200 339 l 1,2,-1
 226 339 l 1,3,-1
 468.384765625 511.799804688 l 1,4,-1
 600 511.799804688 l 1,5,-1
 600 434.521484375 l 1,6,-1
 400 278.548828125 l 1,7,-1
 600 80.986328125 l 1,8,-1
 600 -0.2001953125 l 1,9,-1
 468 -0.2001953125 l 1,10,-1
 226 224.599609375 l 1,11,-1
 200 224.599609375 l 1,12,-1
 200 -0.2001953125 l 1,13,-1
 0 -0.2001953125 l 1,14,-1
 0 716.599609375 l 1,0,-1
EndSplineSet
EndChar

StartChar: l
Encoding: 108 108 40
Width: 300
Flags: W
LayerCount: 2
Fore
SplineSet
0 716.599609375 m 1,0,-1
 200 716.599609375 l 1,1,-1
 200 -0.2001953125 l 1,2,-1
 0 -0.2001953125 l 1,3,-1
 0 716.599609375 l 1,0,-1
EndSplineSet
EndChar

StartChar: m
Encoding: 109 109 41
Width: 800
Flags: W
LayerCount: 2
Fore
SplineSet
0 511.799804688 m 1,0,-1
 500 511.799804688 l 2,1,2
 573.106719653 511.343185162 573.106719653 511.343185162 637.292804938 447.031326744 c 128,-1,3
 701.478890224 382.719468326 701.478890224 382.719468326 700 307 c 2,4,-1
 700 -0.2001953125 l 1,5,-1
 500 -0.2001953125 l 1,6,-1
 500 359.200195312 l 1,7,-1
 450 409.599609375 l 1,8,-1
 400 409.599609375 l 1,9,-1
 400 -0.2001953125 l 1,10,-1
 300 -0.2001953125 l 1,11,-1
 300 409.400390625 l 1,12,-1
 200 409.599609375 l 1,13,-1
 200 -0.2001953125 l 1,14,-1
 0 -0.2001953125 l 1,15,-1
 0 511.799804688 l 1,0,-1
EndSplineSet
EndChar

StartChar: n
Encoding: 110 110 42
Width: 700
Flags: W
LayerCount: 2
Fore
SplineSet
0 511.299804688 m 1,0,-1
 350 511.799804688 l 2,1,2
 458.666759915 511.799804688 458.666759915 511.799804688 530.11550188 449.44469755 c 128,-1,3
 601.564243846 387.089590412 601.564243846 387.089590412 600 307 c 2,4,-1
 600 -0.2001953125 l 1,5,-1
 400 -0.2001953125 l 1,6,-1
 400 358.700195312 l 1,7,-1
 350 409.099609375 l 1,8,-1
 200 409.099609375 l 1,9,-1
 200 -0.2001953125 l 1,10,-1
 0 0.2998046875 l 1,11,-1
 0 511.299804688 l 1,0,-1
EndSplineSet
EndChar

StartChar: o
Encoding: 111 111 43
Width: 699
Flags: W
LayerCount: 2
Fore
SplineSet
350 409.400390625 m 1,0,-1
 250 409.400390625 l 1,1,-1
 200 359 l 1,2,-1
 200 153.400390625 l 1,3,-1
 250 102.200195312 l 1,4,-1
 350 102.200195312 l 1,5,-1
 400 153.400390625 l 1,6,-1
 400 359 l 1,7,-1
 350 409.400390625 l 1,0,-1
300 511.799804688 m 0,8,9
 436.446924892 511.799804688 436.446924892 511.799804688 517.723462446 447.493571922 c 128,-1,10
 599 383.187339157 599 383.187339157 599 254.21875 c 0,11,12
 599 127.865132998 599 127.865132998 517.504409813 63.8324688427 c 128,-1,13
 436.008819626 -0.2001953125 436.008819626 -0.2001953125 300 -0.2001953125 c 0,14,15
 163.496478166 -0.2001953125 163.496478166 -0.2001953125 81.2482390831 64.4102994603 c 128,-1,16
 -1 129.020794233 -1 129.020794233 -1 257.291015625 c 0,17,18
 -0.634273488619 322.71570267 -0.634273488619 322.71570267 21.9983491635 372.136938623 c 128,-1,19
 44.6309718156 421.558174576 44.6309718156 421.558174576 85.6024961734 451.606774756 c 128,-1,20
 126.574020531 481.655374935 126.574020531 481.655374935 180.257901165 496.574072412 c 128,-1,21
 233.9417818 511.492769889 233.9417818 511.492769889 300 511.799804688 c 0,8,9
EndSplineSet
EndChar

StartChar: r
Encoding: 114 114 44
Width: 600
Flags: W
LayerCount: 2
Fore
SplineSet
0 513 m 1,0,-1
 200 511.799804688 l 1,1,-1
 200 381.400390625 l 1,2,3
 262.706302227 490.581687759 262.706302227 490.581687759 400 511.799804688 c 1,4,-1
 500 511.799804688 l 1,5,-1
 500 379 l 1,6,-1
 400 379 l 1,7,8
 329.894645832 364.978929166 329.894645832 364.978929166 284.785607611 327.654761241 c 128,-1,9
 239.676569389 290.330593316 239.676569389 290.330593316 200 225.799804688 c 1,10,-1
 200 -0.2001953125 l 1,11,-1
 0 -0.2001953125 l 1,12,-1
 0 513 l 1,0,-1
EndSplineSet
EndChar

StartChar: t
Encoding: 116 116 45
Width: 700
Flags: W
LayerCount: 2
Fore
SplineSet
0 563 m 1,0,-1
 200 563 l 1,1,-1
 200 716.599609375 l 1,2,-1
 400 716.599609375 l 1,3,-1
 400 563 l 1,4,-1
 600 563 l 1,5,-1
 600 460.599609375 l 1,6,-1
 400 460.599609375 l 1,7,-1
 400 -0.2001953125 l 1,8,-1
 200 -0.2001953125 l 1,9,-1
 200 460.599609375 l 1,10,-1
 0 460.599609375 l 1,11,-1
 0 563 l 1,0,-1
EndSplineSet
EndChar

StartChar: u
Encoding: 117 117 46
Width: 700
Flags: W
LayerCount: 2
Fore
SplineSet
0 511.799804688 m 1,0,-1
 200 511.799804688 l 1,1,-1
 200 153.400390625 l 1,2,-1
 250 102.200195312 l 1,3,-1
 400 102.200195312 l 1,4,-1
 400 511.799804688 l 1,5,-1
 600 511.799804688 l 1,6,-1
 600 -0.2001953125 l 1,7,-1
 250 -0.0537109375 l 2,8,9
 132.402542244 -0.00394638831922 132.402542244 -0.00394638831922 66.2012711218 42.3907270012 c 128,-1,10
 0 84.7854003906 0 84.7854003906 0 173.092773438 c 2,11,-1
 0 511.799804688 l 1,0,-1
EndSplineSet
EndChar

StartChar: v
Encoding: 118 118 47
Width: 700
Flags: W
LayerCount: 2
Fore
SplineSet
0 511.799804688 m 1,0,-1
 200 511.799804688 l 1,1,-1
 301.091796875 102.200195312 l 1,2,-1
 326 102.200195312 l 1,3,-1
 450 511.799804688 l 1,4,-1
 600 511.799804688 l 1,5,-1
 450 -0.2001953125 l 1,6,-1
 120.505859375 -0.2001953125 l 1,7,-1
 0 438.391601562 l 1,8,-1
 0 511.799804688 l 1,0,-1
EndSplineSet
EndChar

StartChar: w
Encoding: 119 119 48
Width: 800
Flags: W
LayerCount: 2
Fore
SplineSet
0 -0.2001953125 m 1,0,-1
 0 511.799804688 l 1,1,-1
 200 511.799804688 l 1,2,-1
 200 102 l 1,3,-1
 300 102.200195312 l 1,4,-1
 300 511.799804688 l 1,5,-1
 400 511.799804688 l 1,6,-1
 400 102 l 1,7,-1
 450 102 l 1,8,-1
 500 152.400390625 l 1,9,-1
 500 511.799804688 l 1,10,-1
 700 511.799804688 l 1,11,-1
 700 204.599609375 l 2,12,13
 701.478890027 128.880873274 701.478890027 128.880873274 637.292810493 64.5690206188 c 128,-1,14
 573.106730959 0.257167964071 573.106730959 0.257167964071 500 -0.2001953125 c 2,15,-1
 0 -0.2001953125 l 1,0,-1
EndSplineSet
EndChar

StartChar: x
Encoding: 120 120 49
Width: 700
Flags: W
LayerCount: 2
Fore
SplineSet
0 511.799804688 m 1,0,-1
 150 511.799804688 l 1,1,-1
 300 359 l 1,2,-1
 450 511.799804688 l 1,3,-1
 600 511.799804688 l 1,4,-1
 600 421.400390625 l 1,5,-1
 438 255.799804688 l 1,6,-1
 600 90.2001953125 l 1,7,-1
 600 -0.2001953125 l 1,8,-1
 450 -0.2001953125 l 1,9,-1
 300 153.400390625 l 1,10,-1
 150 -0.2001953125 l 1,11,-1
 0 -0.2001953125 l 1,12,-1
 0 90.2001953125 l 1,13,-1
 162 255.799804688 l 1,14,-1
 0 421.400390625 l 1,15,-1
 0 511.799804688 l 1,0,-1
EndSplineSet
EndChar

StartChar: y
Encoding: 121 121 50
Width: 700
Flags: W
LayerCount: 2
Fore
SplineSet
0 511.799804688 m 1,0,-1
 200 511.799804688 l 1,1,-1
 200 153.400390625 l 1,2,-1
 250 102.200195312 l 1,3,-1
 400 102.200195312 l 1,4,-1
 400 511.799804688 l 1,5,-1
 600 511.799804688 l 1,6,-1
 600 -0.2001953125 l 2,7,8
 600 -76.9998372396 600 -76.9998372396 537.499960264 -140.99991862 c 128,-1,9
 474.999920527 -205 474.999920527 -205 400 -205 c 2,10,-1
 100 -205 l 1,11,-1
 100 -102.599609375 l 1,12,-1
 350 -102.599609375 l 1,13,-1
 400 -51.400390625 l 1,14,-1
 400 -0.2001953125 l 1,15,-1
 250 -0.0537109375 l 2,16,17
 132.372699652 0.0619252757327 132.372699652 0.0619252757327 66.186349826 42.4311614381 c 128,-1,18
 0 84.8003976004 0 84.8003976004 0 173.092773438 c 2,19,-1
 0 511.799804688 l 1,0,-1
EndSplineSet
EndChar

StartChar: z
Encoding: 122 122 51
Width: 700
Flags: W
LayerCount: 2
Fore
SplineSet
0 511.799804688 m 1,0,-1
 600 511.799804688 l 1,1,-1
 600 409.400390625 l 1,2,-1
 250 102.200195312 l 1,3,-1
 600 102.200195312 l 1,4,-1
 600 -0.2001953125 l 1,5,-1
 0 -0.2001953125 l 1,6,-1
 0 103 l 1,7,-1
 350 409.400390625 l 1,8,-1
 0 410.200195312 l 1,9,-1
 0 511.799804688 l 1,0,-1
EndSplineSet
EndChar

StartChar: zero
Encoding: 48 48 52
Width: 700
Flags: W
LayerCount: 2
Fore
SplineSet
450 353.791015625 m 1,0,-1
 150 220.0234375 l 1,1,-1
 150 164.966796875 l 1,2,-1
 200 109.911132812 l 1,3,-1
 400 109.911132812 l 1,4,-1
 450 164.966796875 l 1,5,-1
 450 353.791015625 l 1,0,-1
400 605.413085938 m 1,6,-1
 200 604.123046875 l 1,7,-1
 150 550.357421875 l 1,8,-1
 150 358.092773438 l 1,9,-1
 450 495.301757812 l 1,10,-1
 450 550.357421875 l 1,11,-1
 400 605.413085938 l 1,6,-1
300 716.599609375 m 128,-1,13
 347.92288701 716.599609375 347.92288701 716.599609375 389.090360876 709.220919271 c 128,-1,14
 430.257834743 701.842229167 430.257834743 701.842229167 470.109639124 682.526596354 c 128,-1,15
 509.961443505 663.210963542 509.961443505 663.210963542 537.890360876 632.879419271 c 128,-1,16
 565.819278248 602.547875 565.819278248 602.547875 582.909639124 553.331658854 c 128,-1,17
 600 504.115442708 600 504.115442708 600 440.24609375 c 2,18,-1
 600 275.079101562 l 2,19,20
 600 211.214249132 600 211.214249132 582.899997783 162.104403212 c 128,-1,21
 565.799995566 112.994557292 565.799995566 112.994557292 537.900002217 82.8239561632 c 128,-1,22
 510.000008869 52.6533550347 510.000008869 52.6533550347 470.099997783 33.4939344618 c 128,-1,23
 430.199986697 14.3345138889 430.199986697 14.3345138889 389.100002217 7.06715928819 c 128,-1,24
 348.000017738 -0.2001953125 348.000017738 -0.2001953125 300 -0.2001953125 c 128,-1,25
 251.999982262 -0.2001953125 251.999982262 -0.2001953125 210.899997783 7.06715928819 c 128,-1,26
 169.800013303 14.3345138889 169.800013303 14.3345138889 129.900002217 33.4939344618 c 128,-1,27
 89.9999911311 52.6533550347 89.9999911311 52.6533550347 62.0999977828 82.8239561632 c 128,-1,28
 34.2000044344 112.994557292 34.2000044344 112.994557292 17.1000022172 162.104403212 c 128,-1,29
 0 211.214249132 0 211.214249132 0 275.079101562 c 2,30,-1
 0 440.24609375 l 2,31,32
 0 504.115442708 0 504.115442708 17.0903608762 553.331658854 c 128,-1,33
 34.1807217524 602.547875 34.1807217524 602.547875 62.1096391238 632.879419271 c 128,-1,34
 90.0385564952 663.210963542 90.0385564952 663.210963542 129.890360876 682.526596354 c 128,-1,35
 169.742165257 701.842229167 169.742165257 701.842229167 210.909639124 709.220919271 c 128,-1,12
 252.07711299 716.599609375 252.07711299 716.599609375 300 716.599609375 c 128,-1,13
EndSplineSet
EndChar

StartChar: one
Encoding: 49 49 53
Width: 500
Flags: W
LayerCount: 2
Fore
SplineSet
0 511 m 1,0,-1
 300 716.599609375 l 1,1,-1
 400 716.599609375 l 1,2,-1
 400 -0.2001953125 l 1,3,-1
 250 -0.2001953125 l 1,4,-1
 250 511.799804688 l 1,5,-1
 228 511.799804688 l 1,6,-1
 78 409.400390625 l 1,7,-1
 0 409.400390625 l 1,8,-1
 0 511 l 1,0,-1
EndSplineSet
EndChar

StartChar: two
Encoding: 50 50 54
Width: 700
Flags: W
LayerCount: 2
Fore
SplineSet
0 495.301757812 m 1,0,1
 0 535.009658813 0 535.009658813 0.547604147883 553.005818503 c 128,-1,2
 1.09520829577 571.001978193 1.09520829577 571.001978193 4.72583335212 599.173613412 c 128,-1,3
 8.35645840847 627.345248631 8.35645840847 627.345248631 15.7819791479 638.762570517 c 128,-1,4
 23.2074998873 650.179892404 23.2074998873 650.179892404 37.5383333521 667.476866586 c 128,-1,5
 51.8691668169 684.773840768 51.8691668169 684.773840768 73.2038541479 690.89081301 c 128,-1,6
 94.5385414788 697.007785252 94.5385414788 697.007785252 126.600833352 704.708586557 c 128,-1,7
 158.663125225 712.409387861 158.663125225 712.409387861 200.938229148 714.504498618 c 128,-1,8
 243.21333307 716.599609375 243.21333307 716.599609375 300 716.599609375 c 0,9,10
 375.915974911 716.599609375 375.915974911 716.599609375 427.389496864 709.083927284 c 128,-1,11
 478.863018817 701.568245192 478.863018817 701.568245192 513.410503136 686.627596154 c 128,-1,12
 547.957987455 671.686947115 547.957987455 671.686947115 566.589496864 644.194005409 c 128,-1,13
 585.221006272 616.701063702 585.221006272 616.701063702 592.610503136 582.097596154 c 128,-1,14
 600 547.494128606 600 547.494128606 600 495.301757812 c 2,15,-1
 600 464.978515625 l 2,16,17
 600 420.19188169 600 420.19188169 577.842781975 388.000023158 c 128,-1,18
 555.685563951 355.808164626 555.685563951 355.808164626 519.387538724 337.771540936 c 128,-1,19
 483.089513498 319.734917247 483.089513498 319.734917247 438.775726582 306.763017418 c 128,-1,20
 394.461939666 293.79111759 394.461939666 293.79111759 347.958967296 282.733235771 c 128,-1,21
 301.455994925 271.675353951 301.455994925 271.675353951 261.224706174 258.466222138 c 128,-1,22
 220.993417422 245.257090324 220.993417422 245.257090324 190.524564963 221.720759686 c 128,-1,23
 160.055712504 198.184429049 160.055712504 198.184429049 150 164.966796875 c 1,24,-1
 150 109.911132812 l 1,25,-1
 600 109.911132812 l 1,26,-1
 600 -0.2001953125 l 1,27,-1
 0 -0.2001953125 l 1,28,-1
 0 164.966796875 l 2,29,30
 0 215.301853785 0 215.301853785 35.8090037201 260.123177987 c 128,-1,31
 71.6180074402 304.944502188 71.6180074402 304.944502188 126.84724628 334.637045402 c 128,-1,32
 182.07648512 364.329588616 182.07648512 364.329588616 239.87150372 383.443185311 c 128,-1,33
 297.666522321 402.556782005 297.666522321 402.556782005 350 409.400390625 c 0,34,35
 373.999581572 413.399762861 373.999581572 413.399762861 404 423.400390625 c 1,36,-1
 450 460.599609375 l 1,37,-1
 450 550.357421875 l 1,38,-1
 400 605.413085938 l 1,39,-1
 176 605.413085938 l 1,40,-1
 126 550.357421875 l 1,41,-1
 126 495.301757812 l 1,42,-1
 0 495.301757812 l 1,0,1
EndSplineSet
EndChar

StartChar: three
Encoding: 51 51 55
Width: 700
Flags: W
LayerCount: 2
Fore
SplineSet
0 495.301757812 m 1,0,1
 0 619.33828125 0 619.33828125 43.8226669999 667.968945312 c 128,-1,2
 87.6453339998 716.599609375 87.6453339998 716.599609375 200 716.599609375 c 2,3,-1
 400 716.599609375 l 2,4,5
 512.354666 716.599609375 512.354666 716.599609375 556.177333 667.968945312 c 128,-1,6
 600 619.33828125 600 619.33828125 600 495.301757812 c 0,7,8
 600 466.200150281 600 466.200150281 593.191123825 444.673004623 c 128,-1,9
 586.38224765 423.145858966 586.38224765 423.145858966 570.624892358 407.354210319 c 128,-1,10
 554.867537067 391.562561672 554.867537067 391.562561672 543.034402506 383.398106529 c 128,-1,11
 531.201267945 375.233651386 531.201267945 375.233651386 507.691025763 362.003148725 c 0,12,13
 502.565927792 359.118975018 502.565927792 359.118975018 500 357.662109375 c 1,14,15
 525.023338589 343.885588513 525.023338589 343.885588513 537.764306431 335.340512776 c 128,-1,16
 550.505274274 326.795437039 550.505274274 326.795437039 567.704443569 310.32599113 c 128,-1,17
 584.903612863 293.856545222 584.903612863 293.856545222 592.451806431 271.694272541 c 128,-1,18
 600 249.53199986 600 249.53199986 600 220.0234375 c 0,19,20
 600 96.1475097656 600 96.1475097656 556.250022172 47.9736572266 c 128,-1,21
 512.500044344 -0.2001953125 512.500044344 -0.2001953125 400 -0.2001953125 c 2,22,-1
 200 -0.2001953125 l 2,23,24
 87.4999556558 -0.2001953125 87.4999556558 -0.2001953125 43.7499778279 47.9736572266 c 128,-1,25
 0 96.1475097656 0 96.1475097656 0 220.0234375 c 1,26,-1
 150 220.0234375 l 1,27,-1
 150 164.966796875 l 1,28,-1
 200 109.911132812 l 1,29,-1
 400 109.911132812 l 1,30,-1
 450 164.966796875 l 1,31,-1
 450 246.905273438 l 1,32,-1
 400 297.66015625 l 1,33,-1
 250 297.875 l 1,34,-1
 250 415.083984375 l 1,35,-1
 400 415.513671875 l 1,36,-1
 450 470.569335938 l 1,37,-1
 450 550.357421875 l 1,38,-1
 400 605.413085938 l 1,39,-1
 200 605.413085938 l 1,40,-1
 150 550.357421875 l 1,41,-1
 150 495.301757812 l 1,42,-1
 0 495.301757812 l 1,0,1
EndSplineSet
EndChar

StartChar: four
Encoding: 52 52 56
Width: 700
Flags: W
LayerCount: 2
Fore
SplineSet
438 555 m 1,0,-1
 150 359 l 1,1,-1
 150 319 l 1,2,-1
 438 319 l 1,3,-1
 438 555 l 1,0,-1
0 204.599609375 m 1,4,-1
 0 409.400390625 l 1,5,-1
 450 716.599609375 l 1,6,-1
 600 716.599609375 l 1,7,-1
 600 -0.2001953125 l 1,8,-1
 438 -0.2001953125 l 1,9,-1
 438 204.599609375 l 1,10,-1
 0 204.599609375 l 1,4,-1
EndSplineSet
EndChar

StartChar: five
Encoding: 53 53 57
Width: 700
Flags: W
LayerCount: 2
Fore
SplineSet
0 716.599609375 m 1,0,-1
 600 716.599609375 l 1,1,-1
 600 605.413085938 l 1,2,-1
 163.63671875 605.413085938 l 1,3,-1
 163.63671875 495.301757812 l 1,4,-1
 218.181640625 495.301757812 l 2,5,6
 219.507750061 495.297574442 219.507750061 495.297574442 222.14836866 495.289301168 c 0,7,8
 274.494326115 495.125296997 274.494326115 495.125296997 298.953875981 494.810400687 c 128,-1,9
 323.413425846 494.495504376 323.413425846 494.495504376 364.395863319 492.878384868 c 128,-1,10
 405.378300792 491.26126536 405.378300792 491.26126536 423.414167928 488.054773007 c 128,-1,11
 441.450035064 484.848280655 441.450035064 484.848280655 471.054385529 478.83351229 c 128,-1,12
 500.658735994 472.818743925 500.658735994 472.818743925 512.915969477 463.780626819 c 128,-1,13
 525.173202959 454.742509712 525.173202959 454.742509712 544.044515493 441.390063779 c 128,-1,14
 562.915828026 428.037617846 562.915828026 428.037617846 570.039476931 410.227847273 c 128,-1,15
 577.163125837 392.418076701 577.163125837 392.418076701 585.946449514 368.787924487 c 128,-1,16
 594.729773192 345.157772274 594.729773192 345.157772274 597.364886596 315.636319524 c 128,-1,17
 600 286.114866774 600 286.114866774 600 249.271484375 c 0,18,19
 600 208.859498851 600 208.859498851 591.919198495 175.073958991 c 128,-1,20
 583.838396991 141.288419131 583.838396991 141.288419131 571.717194734 117.115891993 c 128,-1,21
 559.595992477 92.9433648551 559.595992477 92.9433648551 538.945055298 73.7795595568 c 128,-1,22
 518.29411812 54.6157542584 518.29411812 54.6157542584 499.887848026 42.5139356528 c 128,-1,23
 481.481577932 30.4121170472 481.481577932 30.4121170472 453.647706083 21.7635166041 c 128,-1,24
 425.813834234 13.114916161 425.813834234 13.114916161 406.509697306 8.97727638071 c 128,-1,25
 387.205560378 4.83963660038 387.205560378 4.83963660038 357.575954861 2.59971130577 c 128,-1,26
 327.946349344 0.359786011153 327.946349344 0.359786011153 313.131546586 0.0797953493266 c 128,-1,27
 298.316743827 -0.2001953125 298.316743827 -0.2001953125 272.727539062 -0.2001953125 c 2,28,-1
 250 -0.2001953125 l 2,29,30
 142.893560547 -0.2001953125 142.893560547 -0.2001953125 71.4467802734 54.5883614676 c 128,-1,31
 0 109.376918248 0 109.376918248 0 174.966796875 c 2,32,-1
 0 230.0234375 l 1,33,-1
 119.090820312 230.0234375 l 1,34,-1
 119.090820312 184.966796875 l 1,35,-1
 173.63671875 119.911132812 l 1,36,-1
 401.818359375 119.911132812 l 1,37,-1
 456.36328125 174.966796875 l 1,38,-1
 456.36328125 331.854492188 l 1,39,-1
 401.818359375 386.05078125 l 1,40,-1
 0 386.05078125 l 1,41,-1
 0 716.599609375 l 1,0,-1
EndSplineSet
EndChar

StartChar: six
Encoding: 54 54 58
Width: 700
Flags: W
LayerCount: 2
Fore
SplineSet
411.272460938 297.875 m 1,0,-1
 163.63671875 297.875 l 1,1,-1
 163.63671875 242.819335938 l 1,2,-1
 163.63671875 164.966796875 l 1,3,-1
 218.181640625 109.911132812 l 1,4,-1
 411.272460938 109.911132812 l 1,5,-1
 465.818359375 164.966796875 l 1,6,-1
 465.818359375 242.819335938 l 1,7,-1
 411.272460938 297.875 l 1,0,-1
327.272460938 716.599609375 m 2,8,-1
 500 716.599609375 l 1,9,-1
 500 605.413085938 l 1,10,-1
 350 604.200195312 l 1,11,12
 276.197423476 584.855492368 276.197423476 584.855492368 220.410507966 537.667708853 c 128,-1,13
 164.623592455 490.479925337 164.623592455 490.479925337 163.63671875 439.301757812 c 2,14,-1
 163.63671875 416.588867188 l 1,15,-1
 381.818359375 416.588867188 l 2,16,17
 467.225036677 416.588867188 467.225036677 416.588867188 533.612518339 363.540608724 c 128,-1,18
 600 310.49235026 600 310.49235026 600 230.776367188 c 2,19,-1
 600 203.678710938 l 2,20,21
 600 122.456624349 600 122.456624349 532.567100514 61.1282145182 c 128,-1,22
 465.134201029 -0.2001953125 465.134201029 -0.2001953125 381.818359375 -0.2001953125 c 2,23,-1
 218.181640625 -0.2001953125 l 2,24,25
 136.363444765 -0.2001953125 136.363444765 -0.2001953125 68.1817223824 68.619547526 c 128,-1,26
 0 137.439290365 0 137.439290365 0 220.0234375 c 2,27,-1
 0 386.05078125 l 2,28,29
 0 445.004570449 0 445.004570449 33.325615173 506.572366152 c 128,-1,30
 66.651230346 568.140161856 66.651230346 568.140161856 115.822074646 613.383719053 c 128,-1,31
 164.992918947 658.62727625 164.992918947 658.62727625 222.530052429 687.613442812 c 128,-1,32
 280.067185911 716.599609375 280.067185911 716.599609375 327.272460938 716.599609375 c 2,8,-1
EndSplineSet
EndChar

StartChar: seven
Encoding: 55 55 59
Width: 700
Flags: W
LayerCount: 2
Fore
SplineSet
0 716.599609375 m 1,0,-1
 600 716.599609375 l 1,1,-1
 600 605.413085938 l 2,2,3
 600 561.114893907 600 561.114893907 583.454810496 523.817779946 c 128,-1,4
 566.909620991 486.520665986 566.909620991 486.520665986 540.451895044 459.121359995 c 128,-1,5
 513.994169096 431.722054005 513.994169096 431.722054005 481.997084548 405.675794023 c 128,-1,6
 450 379.62953404 450 379.62953404 418.002915452 351.362391564 c 128,-1,7
 386.005830904 323.095249088 386.005830904 323.095249088 359.548104956 290.964497785 c 128,-1,8
 333.090379009 258.833746482 333.090379009 258.833746482 316.545189504 212.363422222 c 128,-1,9
 300 165.893097962 300 165.893097962 300 109.911132812 c 2,10,-1
 300 -0.2001953125 l 1,11,-1
 150 -0.2001953125 l 1,12,-1
 150 109.911132812 l 2,13,14
 150 161.449582248 150 161.449582248 168.518518519 211.550416305 c 128,-1,15
 187.037037037 261.651250362 187.037037037 261.651250362 214.814814815 299.609170284 c 128,-1,16
 242.592592593 337.567090205 242.592592593 337.567090205 275 378.247175564 c 128,-1,17
 307.407407407 418.927260923 307.407407407 418.927260923 335.185185185 452.54182364 c 128,-1,18
 362.962962963 486.156386357 362.962962963 486.156386357 381.481481481 526.591721282 c 128,-1,19
 400 567.027056207 400 567.027056207 400 605.413085938 c 1,20,-1
 150 605.413085938 l 1,21,-1
 150 550.357421875 l 1,22,-1
 0 550.357421875 l 1,23,-1
 0 716.599609375 l 1,0,-1
EndSplineSet
EndChar

StartChar: eight
Encoding: 56 56 60
Width: 700
Flags: W
LayerCount: 2
Fore
SplineSet
450.36328125 550.357421875 m 1,0,-1
 381.818359375 605.413085938 l 1,1,-1
 218.181640625 605.413085938 l 1,2,-1
 151.63671875 550.357421875 l 1,3,-1
 151.63671875 474.87109375 l 1,4,-1
 218.181640625 419.815429688 l 1,5,-1
 381.818359375 419.815429688 l 1,6,-1
 450.36328125 474.87109375 l 1,7,-1
 450.36328125 550.357421875 l 1,0,-1
600 495.301757812 m 2,8,9
 599.77724773 447.059784699 599.77724773 447.059784699 566.297887947 416.31294269 c 128,-1,10
 532.818528163 385.566100681 532.818528163 385.566100681 463.725585938 356.96484375 c 1,11,12
 533.425271469 329.509730841 533.425271469 329.509730841 566.697784965 298.920151002 c 128,-1,13
 599.970298462 268.330571163 599.970298462 268.330571163 600 220.0234375 c 2,14,-1
 600 164.966796875 l 2,15,16
 600 112.358051215 600 112.358051215 567.676793981 73.8190863715 c 128,-1,17
 535.353587963 35.2801215278 535.353587963 35.2801215278 486.868778935 17.5399631076 c 128,-1,18
 438.383969907 -0.2001953125 438.383969907 -0.2001953125 381.818359375 -0.2001953125 c 2,19,-1
 218.181640625 -0.2001953125 l 2,20,21
 161.616030093 -0.2001953125 161.616030093 -0.2001953125 113.131221065 17.5399631076 c 128,-1,22
 64.646412037 35.2801215278 64.646412037 35.2801215278 32.3232060185 73.8190863715 c 128,-1,23
 0 112.358051215 0 112.358051215 0 164.966796875 c 2,24,-1
 0 220.0234375 l 2,25,26
 0.213842564302 267.608205807 0.213842564302 267.608205807 34.2529960105 297.846407065 c 128,-1,27
 68.2921494567 328.084608324 68.2921494567 328.084608324 138.4453125 356.017578125 c 1,28,29
 68.4514363806 384.380402478 68.4514363806 384.380402478 34.3279274474 415.468631116 c 128,-1,30
 0.204418514232 446.556859754 0.204418514232 446.556859754 0 495.301757812 c 2,31,-1
 0 550.357421875 l 2,32,33
 0 602.990060764 0 602.990060764 32.2972420698 641.779904514 c 128,-1,34
 64.5944841396 680.569748264 64.5944841396 680.569748264 113.157185014 698.584678819 c 128,-1,35
 161.719885888 716.599609375 161.719885888 716.599609375 218.181640625 716.599609375 c 2,36,-1
 381.818359375 716.599609375 l 2,37,38
 438.280114112 716.599609375 438.280114112 716.599609375 486.842814986 698.584678819 c 128,-1,39
 535.40551586 680.569748264 535.40551586 680.569748264 567.70275793 641.779904514 c 128,-1,40
 600 602.990060764 600 602.990060764 600 550.357421875 c 2,41,-1
 600 495.301757812 l 2,8,9
450.36328125 241.529296875 m 1,42,-1
 381.818359375 296.584960938 l 1,43,-1
 218.181640625 296.584960938 l 1,44,-1
 149.63671875 241.529296875 l 1,45,-1
 149.63671875 164.966796875 l 1,46,-1
 218.181640625 109.911132812 l 1,47,-1
 381.818359375 109.911132812 l 1,48,-1
 450.36328125 164.966796875 l 1,49,-1
 450.36328125 241.529296875 l 1,42,-1
EndSplineSet
EndChar

StartChar: nine
Encoding: 57 57 61
Width: 700
Flags: W
LayerCount: 2
Fore
SplineSet
188.727539062 418.524414062 m 1,0,-1
 436.36328125 418.524414062 l 1,1,-1
 436.36328125 473.580078125 l 1,2,-1
 436.36328125 551.432617188 l 1,3,-1
 381.818359375 606.48828125 l 1,4,-1
 188.727539062 606.48828125 l 1,5,-1
 134.181640625 551.432617188 l 1,6,-1
 134.181640625 473.580078125 l 1,7,-1
 188.727539062 418.524414062 l 1,0,-1
272.727539062 -0.2001953125 m 2,8,-1
 100 -0.2001953125 l 1,9,-1
 100 110.986328125 l 1,10,-1
 250 112.200195312 l 1,11,12
 323.802576524 131.544898257 323.802576524 131.544898257 379.589492034 178.732681772 c 128,-1,13
 435.376407545 225.920465288 435.376407545 225.920465288 436.36328125 277.098632812 c 2,14,-1
 436.36328125 299.810546875 l 1,15,-1
 218.181640625 299.810546875 l 2,16,17
 132.775091967 299.810546875 132.775091967 299.810546875 66.3875459834 352.85925293 c 128,-1,18
 0 405.907958984 0 405.907958984 0 485.624023438 c 2,19,-1
 0 512.721679688 l 2,20,21
 0 593.943115234 0 593.943115234 67.4329417691 655.271362305 c 128,-1,22
 134.865883538 716.599609375 134.865883538 716.599609375 218.181640625 716.599609375 c 2,23,-1
 381.818359375 716.599609375 l 2,24,25
 463.636474609 716.599609375 463.636474609 716.599609375 531.818237305 647.780029297 c 128,-1,26
 600 578.960449219 600 578.960449219 600 496.376953125 c 2,27,-1
 600 330.349609375 l 2,28,29
 600 271.395814323 600 271.395814323 566.674381922 209.827870909 c 128,-1,30
 533.348763845 148.259927495 533.348763845 148.259927495 484.177928258 103.016184266 c 128,-1,31
 435.007092671 57.7724410375 435.007092671 57.7724410375 377.469944667 28.7861228625 c 128,-1,32
 319.932796662 -0.2001953125 319.932796662 -0.2001953125 272.727539062 -0.2001953125 c 2,8,-1
EndSplineSet
EndChar

StartChar: exclam
Encoding: 33 33 62
Width: 250
Flags: W
LayerCount: 2
Fore
SplineSet
150 102.400390625 m 1,0,-1
 150 -2.2001953125 l 1,1,-1
 0 -0.2001953125 l 1,2,-1
 0 102.200195312 l 1,3,-1
 150 102.400390625 l 1,0,-1
0 716.599609375 m 1,4,-1
 150 716.599609375 l 1,5,-1
 150 204.799804688 l 1,6,-1
 0 204.799804688 l 1,7,-1
 0 716.599609375 l 1,4,-1
EndSplineSet
EndChar

StartChar: quotedbl
Encoding: 34 34 63
Width: 500
Flags: W
LayerCount: 2
Fore
SplineSet
150 767.799804688 m 1,0,-1
 150 563 l 1,1,-1
 0 563 l 1,2,-1
 0 767.799804688 l 1,3,-1
 150 767.799804688 l 1,0,-1
400 767.799804688 m 1,4,-1
 400 563 l 1,5,-1
 250 563 l 1,6,-1
 250 767.799804688 l 1,7,-1
 400 767.799804688 l 1,4,-1
EndSplineSet
EndChar

StartChar: quotesingle
Encoding: 39 39 64
Width: 250
Flags: W
LayerCount: 2
Fore
SplineSet
150 767.799804688 m 1,0,-1
 150 563 l 1,1,-1
 0 563 l 1,2,-1
 0 767.799804688 l 1,3,-1
 150 767.799804688 l 1,0,-1
EndSplineSet
EndChar

StartChar: period
Encoding: 46 46 65
Width: 250
Flags: W
LayerCount: 2
Fore
SplineSet
150 153.400390625 m 1,0,-1
 150 -0.2001953125 l 1,1,-1
 0 -0.2001953125 l 1,2,-1
 0 153.400390625 l 1,3,-1
 150 153.400390625 l 1,0,-1
EndSplineSet
EndChar

StartChar: numbersign
Encoding: 35 35 66
Width: 750
Flags: W
LayerCount: 2
Fore
SplineSet
400 440.24609375 m 1,0,-1
 250 440.24609375 l 1,1,-1
 250 275.079101562 l 1,2,-1
 400 275.079101562 l 1,3,-1
 400 440.24609375 l 1,0,-1
100 716.599609375 m 1,4,-1
 250 716.599609375 l 1,5,-1
 250 550.357421875 l 1,6,-1
 400 550.357421875 l 1,7,-1
 400 716.599609375 l 1,8,-1
 550 716.599609375 l 1,9,-1
 550 550.357421875 l 1,10,-1
 650 550.357421875 l 1,11,-1
 650 440.24609375 l 1,12,-1
 550 440.24609375 l 1,13,-1
 550 275.079101562 l 1,14,-1
 650 275.079101562 l 1,15,-1
 650 164.966796875 l 1,16,-1
 550 164.966796875 l 1,17,-1
 550 -0.2001953125 l 1,18,-1
 400 -0.2001953125 l 1,19,-1
 400 164.966796875 l 1,20,-1
 250 164.966796875 l 1,21,-1
 250 -0.2001953125 l 1,22,-1
 100 -0.2001953125 l 1,23,-1
 100 164.966796875 l 1,24,-1
 0 164.966796875 l 1,25,-1
 0 275.079101562 l 1,26,-1
 100 275.079101562 l 1,27,-1
 100 441.106445312 l 1,28,-1
 0 441.106445312 l 1,29,-1
 0 550.357421875 l 1,30,-1
 100 550.357421875 l 1,31,-1
 100 716.599609375 l 1,4,-1
EndSplineSet
EndChar

StartChar: comma
Encoding: 44 44 67
Width: 350
Flags: W
LayerCount: 2
Fore
SplineSet
250 153.400390625 m 1,0,-1
 250 102.200195312 l 2,1,2
 250 48.3052560907 250 48.3052560907 225.98958691 -1.98250512909 c 128,-1,3
 201.979173819 -52.2702663489 201.979173819 -52.2702663489 168.54166309 -84.0175711649 c 128,-1,4
 135.104152361 -115.764875981 135.104152361 -115.764875981 102.55208691 -134.782340334 c 128,-1,5
 70.0000214578 -153.799804688 70.0000214578 -153.799804688 50 -153.799804688 c 2,6,-1
 0 -153.799804688 l 1,7,-1
 0 -77 l 1,8,9
 38.7500286102 -77 38.7500286102 -77 69.3750143051 -24.7333577474 c 128,-1,10
 100 27.5332845052 100 27.5332845052 100 102.200195312 c 2,11,-1
 100 153.400390625 l 1,12,-1
 250 153.400390625 l 1,0,-1
EndSplineSet
EndChar

StartChar: dollar
Encoding: 36 36 68
Width: 600
Flags: W
LayerCount: 2
Fore
SplineSet
125.41796875 614.200195312 m 2,0,-1
 200 614.200195312 l 1,1,-1
 200 715.599609375 l 1,2,-1
 350 715.599609375 l 1,3,-1
 350 614.200195312 l 1,4,-1
 500 614.200195312 l 1,5,-1
 500 505.799804688 l 1,6,-1
 133.7265625 505.799804688 l 1,7,-1
 106 478.495117188 l 1,8,-1
 106 442.748046875 l 1,9,-1
 133.373046875 417.400390625 l 1,10,-1
 373.01953125 417.400390625 l 2,11,12
 407.437558025 417.45384163 407.437558025 417.45384163 434.550676175 400.058675842 c 128,-1,13
 461.663794325 382.663510053 461.663794325 382.663510053 475.737549271 354.816873653 c 128,-1,14
 489.811304218 326.970237252 489.811304218 326.970237252 496.523053407 293.289292642 c 128,-1,15
 503.234802596 259.608348032 503.234802596 259.608348032 496.855852843 225.946816255 c 128,-1,16
 490.476903089 192.285284477 490.476903089 192.285284477 476.678466354 164.479981418 c 128,-1,17
 462.880029618 136.674678359 462.880029618 136.674678359 435.9395582 119.359671575 c 128,-1,18
 408.999086782 102.044664792 408.999086782 102.044664792 374.58203125 102.200195312 c 2,19,-1
 300 102.200195312 l 1,20,-1
 300 0 l 1,21,-1
 150 0 l 1,22,-1
 150 101.200195312 l 1,23,-1
 0 102.200195312 l 1,24,-1
 0 210.599609375 l 1,25,-1
 368.749023438 210.599609375 l 1,26,-1
 394 236.13671875 l 1,27,-1
 394 270.341796875 l 1,28,-1
 365.919921875 299 l 1,29,-1
 122.575195312 299 l 2,30,31
 89.3202619963 298.79418293 89.3202619963 298.79418293 63.1206449358 316.068962362 c 128,-1,32
 36.9210278752 333.343741794 36.9210278752 333.343741794 23.3717845695 361.127588636 c 128,-1,33
 9.82254126389 388.911435478 9.82254126389 388.911435478 3.45719741389 422.562322876 c 128,-1,34
 -2.90814643612 456.213210273 -2.90814643612 456.213210273 3.56139713331 489.903178559 c 128,-1,35
 10.0309407027 523.593146846 10.0309407027 523.593146846 23.8092382302 551.460361779 c 128,-1,36
 37.5875357577 579.327576711 37.5875357577 579.327576711 64.3852343691 596.763886012 c 128,-1,37
 91.1829329805 614.200195312 91.1829329805 614.200195312 125.41796875 614.200195312 c 2,0,-1
EndSplineSet
EndChar

StartChar: percent
Encoding: 37 37 69
Width: 750
Flags: W
LayerCount: 2
Fore
SplineSet
650 180.599609375 m 1,0,-1
 650 -0.2001953125 l 1,1,-1
 472 -0.2001953125 l 1,2,-1
 472 180.599609375 l 1,3,-1
 650 180.599609375 l 1,0,-1
0 614.200195312 m 1,4,-1
 178 614.200195312 l 1,5,-1
 178 429.400390625 l 1,6,-1
 0 429.400390625 l 1,7,-1
 0 614.200195312 l 1,4,-1
0 -0.2001953125 m 1,8,-1
 0 102.200195312 l 1,9,-1
 500 614.200195312 l 1,10,-1
 650 614.200195312 l 1,11,-1
 650 511.799804688 l 1,12,-1
 150 -0.2001953125 l 1,13,-1
 0 -0.2001953125 l 1,8,-1
EndSplineSet
EndChar

StartChar: asciitilde
Encoding: 126 126 70
Width: 750
Flags: W
LayerCount: 2
Fore
SplineSet
0 614.200195312 m 1,0,1
 57.8910699591 656.645758828 57.8910699591 656.645758828 127.393505749 686.622684101 c 128,-1,2
 196.895941538 716.599609375 196.895941538 716.599609375 250 716.599609375 c 0,3,4
 253.117994887 716.484368254 253.117994887 716.484368254 267.804147202 716.075097332 c 128,-1,5
 282.490299516 715.665826411 282.490299516 715.665826411 289.139067497 715.289534226 c 128,-1,6
 295.787835479 714.913242042 295.787835479 714.913242042 310.476424079 713.954769829 c 128,-1,7
 325.16501268 712.996297616 325.16501268 712.996297616 333.166258534 711.418354742 c 128,-1,8
 341.167504388 709.840411868 341.167504388 709.840411868 353.355008827 707.41642535 c 128,-1,9
 365.542513266 704.992438832 365.542513266 704.992438832 372.392716546 701.296532254 c 128,-1,10
 379.242919825 697.600625677 379.242919825 697.600625677 386.425819655 692.794811839 c 128,-1,11
 393.608719486 687.988998001 393.608719486 687.988998001 396.804359743 681.258814705 c 128,-1,12
 400 674.528631409 400 674.528631409 400 666.400390625 c 0,13,14
 400 627.059622393 400 627.059622393 466.541529821 664.461641523 c 0,15,16
 474.101940906 668.71123784 474.101940906 668.71123784 550 716.599609375 c 1,17,-1
 650 716.599609375 l 1,18,-1
 650 614.200195312 l 1,19,20
 485.374161921 511.799804688 485.374161921 511.799804688 400 511.799804688 c 0,21,22
 324.022625352 511.799804688 324.022625352 511.799804688 287.381780197 523.988905721 c 128,-1,23
 250.740935042 536.178006755 250.740935042 536.178006755 250 563 c 0,24,25
 250 600.737031618 250 600.737031618 191.246504781 568.830962711 c 0,26,27
 177.431389036 561.328668026 177.431389036 561.328668026 100 511.799804688 c 1,28,-1
 0 511.799804688 l 1,29,-1
 0 614.200195312 l 1,0,1
EndSplineSet
EndChar

StartChar: asciicircum
Encoding: 94 94 71
Width: 650
Flags: W
LayerCount: 2
Fore
SplineSet
0 460.400390625 m 1,0,-1
 200 716.599609375 l 1,1,-1
 350 716.599609375 l 1,2,-1
 550 460.599609375 l 1,3,-1
 550 409.400390625 l 1,4,-1
 400 409.400390625 l 1,5,-1
 280 563 l 1,6,-1
 150 409.400390625 l 1,7,-1
 0 409.400390625 l 1,8,-1
 0 460.400390625 l 1,0,-1
EndSplineSet
EndChar

StartChar: hyphen
Encoding: 45 45 72
Width: 700
Flags: W
LayerCount: 2
Fore
SplineSet
0 432.599609375 m 1,0,-1
 600 431.708007812 l 1,1,-1
 600 279 l 1,2,-1
 0 279 l 1,3,-1
 0 432.599609375 l 1,0,-1
EndSplineSet
EndChar

StartChar: braceleft
Encoding: 123 123 73
Width: 600
Flags: W
LayerCount: 2
Fore
SplineSet
0 300.66015625 m 1,0,-1
 0 415.740234375 l 1,1,2
 53.3627929688 417.657714844 53.3627929688 417.657714844 80.4091796875 426.2890625 c 128,-1,3
 107.456054688 434.919921875 107.456054688 434.919921875 127.193359375 455.298828125 c 128,-1,4
 146.929199219 475.677734375 146.929199219 475.677734375 154.240234375 506.365234375 c 0,5,6
 160.087890625 529.382324219 160.087890625 529.382324219 160.087890625 586.442382812 c 0,7,8
 160.087890625 679.465820312 160.087890625 679.465820312 173.245117188 716.147460938 c 128,-1,9
 186.403808594 752.828613281 186.403808594 752.828613281 220.759765625 775.125976562 c 128,-1,10
 255.117675781 797.422363281 255.117675781 797.422363281 320.90625 810.369140625 c 0,11,12
 365.497558594 819 365.497558594 819 461.256835938 819 c 2,13,-1
 600 819 l 1,14,-1
 600 716.599609375 l 1,15,16
 418.856599959 716.599609375 418.856599959 716.599609375 395.833007812 710.606445312 c 128,-1,17
 372.807128906 704.612304688 372.807128906 704.612304688 361.841796875 692.384765625 c 128,-1,18
 350.877441406 680.157714844 350.877441406 680.157714844 350.876953125 650.428710938 c 0,19,20
 350.876953125 608.006518316 350.876953125 608.006518316 344.297851562 523.627929688 c 0,21,22
 340.643066406 476.156738281 340.643066406 476.156738281 325.291992188 446.66796875 c 128,-1,23
 309.941894531 417.179199219 309.941894531 417.179199219 286.184570312 397.998046875 c 128,-1,24
 262.422677316 378.815947793 262.422677316 378.815947793 213.450195312 358.200195312 c 1,25,26
 256.579589844 341.896484375 256.579589844 341.896484375 283.991210938 320.080078125 c 128,-1,27
 311.402832031 298.262695312 311.402832031 298.262695312 326.0234375 267.094726562 c 128,-1,28
 340.642578125 235.927246094 340.642578125 235.927246094 345.029296875 183.662109375 c 0,29,30
 350.146484375 104.056368876 350.146484375 104.056368876 350.146484375 69.3271484375 c 0,31,32
 350.146484375 37.6806640625 350.146484375 37.6806640625 361.841796875 25.2138671875 c 128,-1,33
 373.538574219 12.7465820312 373.538574219 12.7465820312 397.294921875 6.2734375 c 128,-1,34
 421.055014789 -0.2001953125 421.055014789 -0.2001953125 600 -0.2001953125 c 1,35,-1
 600 -102.599609375 l 1,36,-1
 461.256835938 -102.599609375 l 2,37,38
 362.573242188 -102.599609375 362.573242188 -102.599609375 309.94140625 -92.291015625 c 128,-1,39
 257.309570312 -81.9814453125 257.309570312 -81.9814453125 221.125976562 -58.0068359375 c 128,-1,40
 184.94140625 -34.0317382812 184.94140625 -34.0317382812 172.514648438 1.2119140625 c 128,-1,41
 160.088378906 36.4545898438 160.088378906 36.4545898438 160.087890625 112.215820312 c 0,42,43
 160.087890625 200.444824219 160.087890625 200.444824219 148.391601562 226.81640625 c 0,44,45
 132.310546875 265.177734375 132.310546875 265.177734375 99.7802734375 281.719726562 c 128,-1,46
 67.251953125 298.262207031 67.251953125 298.262207031 0 300.66015625 c 1,0,-1
EndSplineSet
EndChar

StartChar: braceright
Encoding: 125 125 74
Width: 700
Flags: W
LayerCount: 2
Fore
SplineSet
600 300.66015625 m 1,0,1
 532.749023438 298.262207031 532.749023438 298.262207031 500.219726562 281.719726562 c 128,-1,2
 467.689941406 265.177246094 467.689941406 265.177246094 451.608398438 226.81640625 c 0,3,4
 439.911621094 200.444824219 439.911621094 200.444824219 439.912109375 112.215820312 c 0,5,6
 439.912109375 36.4555664062 439.912109375 36.4555664062 427.485351562 1.2119140625 c 128,-1,7
 415.059082031 -34.0322265625 415.059082031 -34.0322265625 378.874023438 -58.0068359375 c 128,-1,8
 342.690917969 -81.9819335938 342.690917969 -81.9819335938 290.05859375 -92.291015625 c 128,-1,9
 237.426757812 -102.600585938 237.426757812 -102.600585938 138.743164062 -102.599609375 c 2,10,-1
 0 -102.599609375 l 1,11,-1
 0 -0.2001953125 l 1,12,13
 178.944985211 -0.2001953125 178.944985211 -0.2001953125 202.705078125 6.2734375 c 128,-1,14
 226.461914062 12.7465820312 226.461914062 12.7465820312 238.158203125 25.2138671875 c 128,-1,15
 249.853515625 37.6796875 249.853515625 37.6796875 249.853515625 69.3271484375 c 0,16,17
 249.853515625 104.056368876 249.853515625 104.056368876 254.970703125 183.662109375 c 0,18,19
 259.356445312 235.927734375 259.356445312 235.927734375 273.9765625 267.094726562 c 128,-1,20
 288.597167969 298.262207031 288.597167969 298.262207031 316.008789062 320.080078125 c 128,-1,21
 343.420410156 341.897460938 343.420410156 341.897460938 386.549804688 358.200195312 c 1,22,23
 337.577322684 378.815947793 337.577322684 378.815947793 313.815429688 397.998046875 c 128,-1,24
 290.05859375 417.178710938 290.05859375 417.178710938 274.708007812 446.66796875 c 128,-1,25
 259.356445312 476.156738281 259.356445312 476.156738281 255.702148438 523.627929688 c 0,26,27
 249.123046875 608.006518316 249.123046875 608.006518316 249.123046875 650.428710938 c 0,28,29
 249.123046875 680.157714844 249.123046875 680.157714844 238.158203125 692.384765625 c 128,-1,30
 227.192382812 704.61328125 227.192382812 704.61328125 204.166992188 710.606445312 c 128,-1,31
 181.143400041 716.599609375 181.143400041 716.599609375 0 716.599609375 c 1,32,-1
 0 819 l 1,33,-1
 138.743164062 819 l 2,34,35
 234.502929688 819 234.502929688 819 279.09375 810.369140625 c 0,36,37
 344.8828125 797.422851562 344.8828125 797.422851562 379.240234375 775.125976562 c 128,-1,38
 413.596679688 752.828125 413.596679688 752.828125 426.754882812 716.147460938 c 128,-1,39
 439.912109375 679.46484375 439.912109375 679.46484375 439.912109375 586.442382812 c 0,40,41
 439.912109375 529.382324219 439.912109375 529.382324219 445.759765625 506.365234375 c 0,42,43
 453.070800781 475.678222656 453.070800781 475.678222656 472.806640625 455.298828125 c 128,-1,44
 492.543945312 434.919921875 492.543945312 434.919921875 519.590820312 426.2890625 c 128,-1,45
 546.637695312 417.658203125 546.637695312 417.658203125 600 415.740234375 c 1,46,-1
 600 300.66015625 l 1,0,1
EndSplineSet
EndChar

StartChar: bar
Encoding: 124 124 75
Width: 250
Flags: W
LayerCount: 2
Fore
SplineSet
0 716.599609375 m 1,0,-1
 150 716.599609375 l 1,1,-1
 150 -205 l 1,2,-1
 0 -205 l 1,3,-1
 0 716.599609375 l 1,0,-1
EndSplineSet
EndChar

StartChar: uni0018
Encoding: 24 24 76
Width: 600
Flags: W
LayerCount: 2
Fore
SplineSet
0 460.599609375 m 1,0,1
 51.3901735339 531.914014154 51.3901735339 531.914014154 92.9407309581 576.563479958 c 128,-1,2
 134.491288382 621.212945761 134.491288382 621.212945761 175.198510578 645.003536644 c 128,-1,3
 215.905732774 668.794127527 215.905732774 668.794127527 251.890835848 668.761152484 c 128,-1,4
 287.875938922 668.72817744 287.875938922 668.72817744 328.172324236 644.773718936 c 128,-1,5
 368.46870955 620.819260431 368.46870955 620.819260431 409.15799803 576.276207822 c 128,-1,6
 449.84728651 531.733155213 449.84728651 531.733155213 500 460.599609375 c 1,7,-1
 500 409.400390625 l 1,8,-1
 324 410.200195312 l 1,9,-1
 324 51 l 1,10,-1
 174 51 l 1,11,-1
 174 410.200195312 l 1,12,-1
 0 409.200195312 l 1,13,-1
 0 460.599609375 l 1,0,1
EndSplineSet
EndChar

StartChar: uni0019
Encoding: 25 25 77
Width: 600
Flags: W
LayerCount: 2
Fore
SplineSet
0 255.599609375 m 1,0,-1
 0 307 l 1,1,-1
 174 306 l 1,2,-1
 174 665.200195312 l 1,3,-1
 324 665.200195312 l 1,4,-1
 324 306 l 1,5,-1
 500 306.799804688 l 1,6,-1
 500 255.599609375 l 1,7,8
 449.847286404 184.466314615 449.847286404 184.466314615 409.157998009 139.923419216 c 128,-1,9
 368.468709613 95.3805238178 368.468709613 95.3805238178 328.172324257 71.4261494684 c 128,-1,10
 287.875938902 47.4717751191 287.875938902 47.4717751191 251.890835827 47.4388000758 c 128,-1,11
 215.905732752 47.4058250326 215.905732752 47.4058250326 175.1985106 71.1963317601 c 128,-1,12
 134.491288447 94.9868384876 134.491288447 94.9868384876 92.9407309367 139.636147081 c 128,-1,13
 51.3901734261 184.285455675 51.3901734261 184.285455675 0 255.599609375 c 1,0,-1
EndSplineSet
EndChar

StartChar: slash
Encoding: 47 47 78
Width: 800
Flags: W
LayerCount: 2
Fore
SplineSet
100 -0.2001953125 m 1,0,-1
 0 -0.2001953125 l 1,1,-1
 0 153.400390625 l 1,2,-1
 550 716.599609375 l 1,3,-1
 700 716.599609375 l 1,4,-1
 700 614.200195312 l 1,5,-1
 100 -0.2001953125 l 1,0,-1
EndSplineSet
EndChar

StartChar: ampersand
Encoding: 38 38 79
Width: 750
Flags: W
LayerCount: 2
Fore
SplineSet
650 101.530273438 m 1,0,-1
 650 -0.2001953125 l 1,1,-1
 568.510742188 -0.2001953125 l 1,2,3
 508.591308594 28.396484375 508.591308594 28.396484375 453.465820312 78.55859375 c 1,4,5
 410.803710938 41.0541992188 410.803710938 41.0541992188 362.869140625 23.240234375 c 0,6,7
 298.786897054 -0.57421875 298.786897054 -0.57421875 248.783203125 -0.57421875 c 0,8,9
 122.938452409 -0.57421875 122.938452409 -0.57421875 51.291015625 77.62109375 c 0,10,11
 -0.00048828125 133.409667969 -0.00048828125 133.409667969 0 206.073242188 c 0,12,13
 0 272.174316406 0 272.174316406 40.265625 324.915039062 c 128,-1,14
 80.53125 377.655273438 80.53125 377.655273438 160.583007812 416.56640625 c 1,15,16
 124.631347656 458.289550781 124.631347656 458.289550781 106.416015625 496.028320312 c 128,-1,17
 88.2006835938 533.767089844 88.2006835938 533.767089844 88.2001953125 567.520507812 c 0,18,19
 88.2001953125 629.871582031 88.2001953125 629.871582031 139.251953125 673.235351562 c 128,-1,20
 190.301757812 716.600585938 190.301757812 716.600585938 284.734375 716.599609375 c 0,21,22
 375.811035156 716.599609375 375.811035156 716.599609375 427.1015625 671.125976562 c 128,-1,23
 478.393066406 625.652832031 478.393066406 625.652832031 478.392578125 560.01953125 c 0,24,25
 478.392578125 518.296386719 478.392578125 518.296386719 452.986328125 480.791992188 c 128,-1,26
 427.581542969 443.287597656 427.581542969 443.287597656 350.405273438 395.938476562 c 1,27,-1
 448.193359375 269.831054688 l 1,28,29
 460.357300457 290.980616762 460.357300457 290.980616762 477.913085938 359 c 1,30,-1
 600 359 l 1,31,-1
 599.66796875 307 l 1,32,33
 592.241014314 281.195290196 592.241014314 281.195290196 568.03125 228.341796875 c 0,34,35
 554.608886719 199.040527344 554.608886719 199.040527344 539.26953125 179.3515625 c 1,36,37
 561.800292969 158.723632812 561.800292969 158.723632812 597.510742188 134.112304688 c 128,-1,38
 633.222167969 109.5 633.222167969 109.5 650 101.530273438 c 1,0,-1
283.296875 475.166015625 m 1,39,-1
 319.727539062 502.357421875 l 2,40,41
 359.991699219 532.829101562 359.991699219 532.829101562 359.9921875 562.833007812 c 0,42,43
 359.9921875 588.1484375 359.9921875 588.1484375 340.579101562 605.962890625 c 128,-1,44
 321.165527344 623.776855469 321.165527344 623.776855469 288.08984375 623.77734375 c 0,45,46
 255.973144531 623.77734375 255.973144531 623.77734375 237.7578125 608.072265625 c 128,-1,47
 219.542480469 592.367675781 219.542480469 592.367675781 219.54296875 571.740234375 c 0,48,49
 219.54296875 547.362304688 219.54296875 547.362304688 250.221679688 512.670898438 c 2,50,-1
 283.296875 475.166015625 l 1,39,-1
230.567382812 332.181640625 m 1,51,52
 184.0703125 309.209960938 184.0703125 309.209960938 161.061523438 276.862304688 c 128,-1,53
 138.052734375 244.51493854 138.052734375 244.51493854 138.052734375 210.76171875 c 0,54,55
 138.052734375 168.099609375 138.052734375 168.099609375 166.57421875 141.14453125 c 128,-1,56
 195.096191406 114.188476562 195.096191406 114.188476562 243.03125 114.1875 c 0,57,58
 274.667480469 114.1875 274.667480469 114.1875 303.908203125 126.376953125 c 128,-1,59
 333.149414062 138.565917969 333.149414062 138.565917969 367.662109375 166.694335938 c 1,60,-1
 230.567382812 332.181640625 l 1,51,52
EndSplineSet
EndChar

StartChar: parenleft
Encoding: 40 40 80
Width: 400
Flags: W
LayerCount: 2
Fore
SplineSet
150 716.599609375 m 1,0,-1
 300 716.599609375 l 1,1,-1
 300 666.400390625 l 1,2,3
 261.731182443 626.830283783 261.731182443 626.830283783 244.966397805 608.325032543 c 128,-1,4
 228.201613168 589.819781303 228.201613168 589.819781303 205.033602195 558.601576832 c 128,-1,5
 181.865591221 527.38337236 181.865591221 527.38337236 172.966397805 502.366391918 c 128,-1,6
 164.067204389 477.349411476 164.067204389 477.349411476 157.033602195 440.787076832 c 128,-1,7
 150 404.224742187 150 404.224742187 150 359 c 0,8,9
 150 313 150 313 157 276.5 c 128,-1,10
 164 240 164 240 173 214.5 c 128,-1,11
 182 189 182 189 205 158 c 128,-1,12
 228 127 228 127 245 108.5 c 128,-1,13
 262 90 262 90 300 51 c 1,14,-1
 300 -0.2001953125 l 1,15,-1
 150 -0.2001953125 l 1,16,17
 72.4687407306 79.1921170358 72.4687407306 79.1921170358 36.2343703653 162.820973069 c 128,-1,18
 0 246.449829102 0 246.449829102 0 359 c 0,19,20
 0 468.312561035 0 468.312561035 36.558907423 553.092631647 c 128,-1,21
 73.117814846 637.872702259 73.117814846 637.872702259 150 716.599609375 c 1,0,-1
EndSplineSet
EndChar

StartChar: parenright
Encoding: 41 41 81
Width: 400
Flags: W
LayerCount: 2
Fore
SplineSet
150 716.599609375 m 1,0,1
 226.882185154 637.872702259 226.882185154 637.872702259 263.441092577 553.092631647 c 128,-1,2
 300 468.312561035 300 468.312561035 300 359 c 0,3,4
 300 246.449829102 300 246.449829102 263.765629635 162.820973069 c 128,-1,5
 227.531259269 79.1921170358 227.531259269 79.1921170358 150 -0.2001953125 c 1,6,-1
 0 -0.2001953125 l 1,7,-1
 0 51 l 1,8,9
 38 90 38 90 55 108.5 c 128,-1,10
 72 127 72 127 95 158 c 128,-1,11
 118 189 118 189 127 214.5 c 128,-1,12
 136 240 136 240 143 276.5 c 128,-1,13
 150 313 150 313 150 359 c 0,14,15
 150 404.224742187 150 404.224742187 142.966397805 440.787076832 c 128,-1,16
 135.932795611 477.349411476 135.932795611 477.349411476 127.033602195 502.366391918 c 128,-1,17
 118.134408779 527.38337236 118.134408779 527.38337236 94.9663978054 558.601576832 c 128,-1,18
 71.7983868321 589.819781303 71.7983868321 589.819781303 55.0336021946 608.325032543 c 128,-1,19
 38.2688175571 626.830283783 38.2688175571 626.830283783 0 666.400390625 c 1,20,-1
 0 716.599609375 l 1,21,-1
 150 716.599609375 l 1,0,1
EndSplineSet
EndChar

StartChar: asterisk
Encoding: 42 42 82
Width: 600
Flags: W
LayerCount: 2
Fore
SplineSet
0 307 m 1,0,-1
 0 408 l 1,1,-1
 150 409 l 1,2,-1
 50 563 l 1,3,-1
 150 614.200195312 l 1,4,-1
 250 460.599609375 l 1,5,-1
 350 614.200195312 l 1,6,-1
 450 563 l 1,7,-1
 350 409 l 1,8,-1
 500 409 l 1,9,-1
 500 305.799804688 l 1,10,-1
 350 305.799804688 l 1,11,-1
 450 153.400390625 l 1,12,-1
 350 102.200195312 l 1,13,-1
 250 255.799804688 l 1,14,-1
 150 102.200195312 l 1,15,-1
 50 153.400390625 l 1,16,-1
 150 305.799804688 l 1,17,-1
 0 307 l 1,0,-1
EndSplineSet
EndChar

StartChar: plus
Encoding: 43 43 83
Width: 650
Flags: W
LayerCount: 2
Fore
SplineSet
200 614.200195312 m 1,0,-1
 350 614.200195312 l 1,1,-1
 350 409.400390625 l 1,2,-1
 550 409.400390625 l 1,3,-1
 550 307 l 1,4,-1
 350 307 l 1,5,-1
 350 101.400390625 l 1,6,-1
 200 102.200195312 l 1,7,-1
 200 307.799804688 l 1,8,-1
 0 307.799804688 l 1,9,-1
 0 410.599609375 l 1,10,-1
 200 410.200195312 l 1,11,-1
 200 614.200195312 l 1,0,-1
EndSplineSet
EndChar

StartChar: colon
Encoding: 58 58 84
Width: 250
Flags: W
LayerCount: 2
Fore
SplineSet
150 153.400390625 m 1,0,-1
 150 -0.2001953125 l 1,1,-1
 0 -0.2001953125 l 1,2,-1
 0 153.400390625 l 1,3,-1
 150 153.400390625 l 1,0,-1
150 511.799804688 m 1,4,-1
 150 358.200195312 l 1,5,-1
 0 358.200195312 l 1,6,-1
 0 511.799804688 l 1,7,-1
 150 511.799804688 l 1,4,-1
EndSplineSet
EndChar

StartChar: semicolon
Encoding: 59 59 85
Width: 350
Flags: W
LayerCount: 2
Fore
SplineSet
250 511.799804688 m 1,0,-1
 250 358.200195312 l 1,1,-1
 100 358.200195312 l 1,2,-1
 100 511.799804688 l 1,3,-1
 250 511.799804688 l 1,0,-1
250 153.400390625 m 1,4,-1
 250 102.200195312 l 2,5,6
 250 48.3052560907 250 48.3052560907 225.98958691 -1.98250512909 c 128,-1,7
 201.979173819 -52.2702663489 201.979173819 -52.2702663489 168.54166309 -84.0175711649 c 128,-1,8
 135.104152361 -115.764875981 135.104152361 -115.764875981 102.55208691 -134.782340334 c 128,-1,9
 70.0000214578 -153.799804688 70.0000214578 -153.799804688 50 -153.799804688 c 2,10,-1
 0 -153.799804688 l 1,11,-1
 0 -77 l 1,12,13
 38.7500286102 -77 38.7500286102 -77 69.3750143051 -24.7333577474 c 128,-1,14
 100 27.5332845052 100 27.5332845052 100 102.200195312 c 2,15,-1
 100 153.400390625 l 1,16,-1
 250 153.400390625 l 1,4,-1
EndSplineSet
EndChar

StartChar: less
Encoding: 60 60 86
Width: 576
Flags: W
LayerCount: 2
Fore
SplineSet
300 716.599609375 m 1,0,-1
 476 716.599609375 l 1,1,-1
 476 666.400390625 l 1,2,-1
 176 359 l 1,3,-1
 476 51 l 1,4,-1
 476 -0.2001953125 l 1,5,-1
 300 -0.2001953125 l 1,6,-1
 0 307 l 1,7,-1
 0 409.400390625 l 1,8,-1
 300 716.599609375 l 1,0,-1
EndSplineSet
EndChar

StartChar: equal
Encoding: 61 61 87
Width: 700
Flags: W
LayerCount: 2
Fore
SplineSet
0 409.400390625 m 1,0,-1
 600 409.400390625 l 1,1,-1
 600 307 l 1,2,-1
 0 307 l 1,3,-1
 0 409.400390625 l 1,0,-1
600 203.599609375 m 1,4,-1
 600 101.200195312 l 1,5,-1
 0 102.200195312 l 1,6,-1
 0 204.599609375 l 1,7,-1
 600 203.599609375 l 1,4,-1
EndSplineSet
EndChar

StartChar: greater
Encoding: 62 62 88
Width: 576
Flags: W
LayerCount: 2
Fore
SplineSet
176 716.599609375 m 1,0,-1
 476 409.400390625 l 1,1,-1
 476 307 l 1,2,-1
 176 -0.2001953125 l 1,3,-1
 0 -0.2001953125 l 1,4,-1
 0 51 l 1,5,-1
 300 359 l 1,6,-1
 0 666.400390625 l 1,7,-1
 0 716.599609375 l 1,8,-1
 176 716.599609375 l 1,0,-1
EndSplineSet
EndChar

StartChar: question
Encoding: 63 63 89
Width: 750
Flags: W
LayerCount: 2
Fore
SplineSet
421.017578125 202.866210938 m 1,0,-1
 201.768554688 202.866210938 l 1,1,2
 201.631707473 208.7717696 201.631707473 208.7717696 201.501713005 213.21145681 c 128,-1,3
 201.371718537 217.651144021 201.371718537 217.651144021 201.303386482 219.376952613 c 128,-1,4
 201.235054428 221.102761206 201.235054428 221.102761206 201.193699089 222.547089135 c 128,-1,5
 201.15234375 223.991417063 201.15234375 223.991417063 201.15234375 225.287109375 c 0,6,7
 201.15234375 275.289550781 201.15234375 275.289550781 226.435546875 314.000976562 c 0,8,9
 228.106552974 316.559474719 228.106552974 316.559474719 234.579835566 326.814678669 c 128,-1,10
 241.053118159 337.069882619 241.053118159 337.069882619 243.930906621 341.242735068 c 128,-1,11
 246.808695084 345.415587518 246.808695084 345.415587518 254.153764964 354.77280403 c 128,-1,12
 261.498834845 364.130020542 261.498834845 364.130020542 268.012214492 370.276191376 c 128,-1,13
 274.525594138 376.42236221 274.525594138 376.42236221 284.964673529 384.881645538 c 128,-1,14
 295.403752921 393.340928865 295.403752921 393.340928865 307.568359375 401.1015625 c 0,15,16
 329.126914882 414.855238101 329.126914882 414.855238101 359.667693135 429.301469608 c 128,-1,17
 390.208471388 443.747701115 390.208471388 443.747701115 411.251252178 453.131473101 c 128,-1,18
 432.294032968 462.515245086 432.294032968 462.515245086 436.217773438 466.4921875 c 0,19,20
 461.034179688 492.280474067 461.034179688 492.280474067 461.034179688 516.751953125 c 0,21,22
 461.034179688 556.431640625 461.034179688 556.431640625 420.642578125 584.739257812 c 0,23,24
 401.206403228 598.3609333 401.206403228 598.3609333 381.447623971 602.70390415 c 128,-1,25
 361.688844714 607.046875 361.688844714 607.046875 325.801757812 607.046875 c 0,26,27
 293.995279478 607.046875 293.995279478 607.046875 274.315424902 601.005641375 c 128,-1,28
 254.635570325 594.964407751 254.635570325 594.964407751 231.418945312 579.529296875 c 0,29,30
 209.67652364 565.074998073 209.67652364 565.074998073 197.348445507 545.914394589 c 128,-1,31
 185.020367375 526.753791106 185.020367375 526.753791106 176.5 495.799804688 c 1,32,-1
 175.375 482.599609375 l 1,33,-1
 0 482.599609375 l 1,34,-1
 0 495.799804688 l 2,35,36
 0 549.474259282 0 549.474259282 21.5595840544 596.170090302 c 128,-1,37
 43.1191681089 642.865921321 43.1191681089 642.865921321 85.3115234375 672.11328125 c 0,38,39
 163.913712572 726.599609375 163.913712572 726.599609375 324.401367188 726.599609375 c 0,40,41
 484.51640582 726.599609375 484.51640582 726.599609375 569.817382812 667.387695312 c 0,42,43
 650 611.727780579 650 611.727780579 650 511.799804688 c 0,44,45
 650 467.879512001 650 467.879512001 617.625 427.715820312 c 0,46,47
 582.142421117 383.69693665 582.142421117 383.69693665 491.184570312 324.356445312 c 0,48,49
 455.636036748 301.163131116 455.636036748 301.163131116 431.04296875 260.772460938 c 0,50,51
 424.093699943 249.359260096 424.093699943 249.359260096 422.258834453 239.620163938 c 128,-1,52
 420.423968963 229.881067779 420.423968963 229.881067779 421.017578125 202.866210938 c 1,0,-1
199.768554688 -0.0458984375 m 1,53,-1
 199.768554688 125.928710938 l 1,54,-1
 419.884765625 125.928710938 l 1,55,-1
 419.884765625 -0.0458984375 l 1,56,-1
 199.768554688 -0.0458984375 l 1,53,-1
EndSplineSet
EndChar

StartChar: at
Encoding: 64 64 90
Width: 750
Flags: W
LayerCount: 2
Fore
SplineSet
0 409.400390625 m 2,0,1
 0 483.178955078 0 483.178955078 25.5944733508 543.009195964 c 128,-1,2
 51.1889467016 602.839436849 51.1889467016 602.839436849 93.9367766492 639.953572591 c 128,-1,3
 136.684606597 677.067708333 136.684606597 677.067708333 189.656973351 696.833658854 c 128,-1,4
 242.629340105 716.599609375 242.629340105 716.599609375 300 716.599609375 c 2,5,-1
 350 716.599609375 l 2,6,7
 425.757638811 716.599609375 425.757638811 716.599609375 493.939409703 685.310850694 c 128,-1,8
 562.121180595 654.022092014 562.121180595 654.022092014 606.060590297 594.288758681 c 128,-1,9
 650 534.555425347 650 534.555425347 650 460.599609375 c 2,10,-1
 650 204.599609375 l 1,11,-1
 250 204.599609375 l 1,12,-1
 250 460.599609375 l 1,13,-1
 350 460.599609375 l 1,14,-1
 500 460.599609375 l 1,15,-1
 500 511.799804688 l 1,16,-1
 450 563 l 1,17,-1
 250 563 l 1,18,-1
 200 563 l 1,19,-1
 150 511.799804688 l 1,20,-1
 150 153.400390625 l 1,21,-1
 200 102.200195312 l 1,22,-1
 550 102.200195312 l 1,23,-1
 550 -0.2001953125 l 1,24,-1
 250 -0.2001953125 l 2,25,26
 136.842163231 -0.2001953125 136.842163231 -0.2001953125 68.4210816154 69.1332310268 c 128,-1,27
 0 138.466657366 0 138.466657366 0 255.799804688 c 2,28,-1
 0 409.400390625 l 2,0,1
EndSplineSet
EndChar

StartChar: bracketleft
Encoding: 91 91 91
Width: 500
Flags: W
LayerCount: 2
Fore
SplineSet
400 716.599609375 m 1,0,-1
 400 614.200195312 l 1,1,-1
 150 614.200195312 l 1,2,-1
 150 102.200195312 l 1,3,-1
 400 102.200195312 l 1,4,-1
 400 -0.2001953125 l 1,5,-1
 0 -0.2001953125 l 1,6,-1
 0 716.599609375 l 1,7,-1
 400 716.599609375 l 1,0,-1
EndSplineSet
EndChar

StartChar: backslash
Encoding: 92 92 92
Width: 800
Flags: W
LayerCount: 2
Fore
SplineSet
600 -0.2001953125 m 1,0,-1
 0 614.200195312 l 1,1,-1
 0 716.599609375 l 1,2,-1
 150 716.599609375 l 1,3,-1
 700 153.400390625 l 1,4,-1
 700 -0.2001953125 l 1,5,-1
 600 -0.2001953125 l 1,0,-1
EndSplineSet
EndChar

StartChar: bracketright
Encoding: 93 93 93
Width: 500
Flags: W
LayerCount: 2
Fore
SplineSet
0 716.599609375 m 1,0,-1
 400 716.599609375 l 1,1,-1
 400 -0.2001953125 l 1,2,-1
 0 -0.2001953125 l 1,3,-1
 0 102.200195312 l 1,4,-1
 250 102.200195312 l 1,5,-1
 250 614.200195312 l 1,6,-1
 0 614.200195312 l 1,7,-1
 0 716.599609375 l 1,0,-1
EndSplineSet
EndChar

StartChar: underscore
Encoding: 95 95 95
Width: 600
Flags: W
LayerCount: 2
Fore
SplineSet
0 -0.2001953125 m 1,0,-1
 500 -0.2001953125 l 1,1,-1
 500 -102.599609375 l 1,2,-1
 0 -102.599609375 l 1,3,-1
 0 -0.2001953125 l 1,0,-1
EndSplineSet
EndChar

StartChar: grave
Encoding: 96 96 96
Width: 300
Flags: W
LayerCount: 2
Fore
SplineSet
150 767.799804688 m 1,0,-1
 200 614.200195312 l 1,1,-1
 200 563 l 1,2,-1
 100 563 l 1,3,-1
 0 716.599609375 l 1,4,-1
 0 767.799804688 l 1,5,-1
 150 767.799804688 l 1,0,-1
EndSplineSet
EndChar

StartChar: uni0013
Encoding: 19 19 97
Width: 800
Flags: W
LayerCount: 2
Fore
SplineSet
0 716.599609375 m 1,0,-1
 700 716.599609375 l 1,1,-1
 700 -0.2001953125 l 1,2,-1
 0 -0.2001953125 l 1,3,-1
 0 716.599609375 l 1,0,-1
100 523.799804688 m 1,4,-1
 262 358.200195312 l 1,5,-1
 100 192.599609375 l 1,6,-1
 100 102.200195312 l 1,7,-1
 188 102.200195312 l 1,8,-1
 350 267.799804688 l 1,9,-1
 512 102.200195312 l 1,10,-1
 600 102.200195312 l 1,11,-1
 600 192.599609375 l 1,12,-1
 438 358.200195312 l 1,13,-1
 600 523.799804688 l 1,14,-1
 600 614.200195312 l 1,15,-1
 512 614.200195312 l 1,16,-1
 350 449.400390625 l 1,17,-1
 188 614.200195312 l 1,18,-1
 100 614.200195312 l 1,19,-1
 100 523.799804688 l 1,4,-1
EndSplineSet
EndChar

StartChar: uni0014
Encoding: 20 20 98
Width: 800
Flags: W
LayerCount: 2
Fore
SplineSet
0 716.599609375 m 1,0,-1
 700 716.599609375 l 1,1,-1
 700 -0.2001953125 l 1,2,-1
 0 -0.2001953125 l 1,3,-1
 0 716.599609375 l 1,0,-1
100 523.799804688 m 1,4,-1
 262 358.200195312 l 1,5,-1
 100 192.599609375 l 1,6,-1
 100 102.200195312 l 1,7,-1
 188 102.200195312 l 1,8,-1
 350 267.799804688 l 1,9,-1
 512 102.200195312 l 1,10,-1
 600 102.200195312 l 1,11,-1
 600 192.599609375 l 1,12,-1
 438 358.200195312 l 1,13,-1
 600 523.799804688 l 1,14,-1
 600 614.200195312 l 1,15,-1
 512 614.200195312 l 1,16,-1
 350 449.400390625 l 1,17,-1
 188 614.200195312 l 1,18,-1
 100 614.200195312 l 1,19,-1
 100 523.799804688 l 1,4,-1
EndSplineSet
EndChar

StartChar: uni0015
Encoding: 21 21 99
Width: 800
Flags: W
LayerCount: 2
Fore
SplineSet
0 716.599609375 m 1,0,-1
 700 716.599609375 l 1,1,-1
 700 -0.2001953125 l 1,2,-1
 0 -0.2001953125 l 1,3,-1
 0 716.599609375 l 1,0,-1
100 523.799804688 m 1,4,-1
 262 358.200195312 l 1,5,-1
 100 192.599609375 l 1,6,-1
 100 102.200195312 l 1,7,-1
 188 102.200195312 l 1,8,-1
 350 267.799804688 l 1,9,-1
 512 102.200195312 l 1,10,-1
 600 102.200195312 l 1,11,-1
 600 192.599609375 l 1,12,-1
 438 358.200195312 l 1,13,-1
 600 523.799804688 l 1,14,-1
 600 614.200195312 l 1,15,-1
 512 614.200195312 l 1,16,-1
 350 449.400390625 l 1,17,-1
 188 614.200195312 l 1,18,-1
 100 614.200195312 l 1,19,-1
 100 523.799804688 l 1,4,-1
EndSplineSet
EndChar
